<svg width="12" height="12" viewBox="0 0 12 12" fill="none" xmlns="http://www.w3.org/2000/svg">
<path d="M4.74999 5.25H6.07273V8.5M4.75 8.5H6.07273M7.5 8.5H6.07273M6.425 3.35H6M6.425 3.35C6.425 3.23264 6.37743 3.12639 6.30052 3.04948M6.425 3.35C6.425 3.46736 6.37743 3.57361 6.30052 3.65052M5.575 3.35H6M5.575 3.35C5.575 3.22467 5.62925 3.11201 5.71554 3.03423M5.575 3.35C5.575 3.46736 5.62257 3.57361 5.69948 3.65052M6 3.35L5.71554 3.03423M6 3.35L6.30052 3.04948M6 3.35L6.30052 3.65052M6 3.35L5.69948 3.65052M5.71554 3.03423C5.79087 2.96633 5.89061 2.925 6 2.925C6.11736 2.925 6.22361 2.97257 6.30052 3.04948M6.30052 3.65052C6.22361 3.72743 6.11736 3.775 6 3.775C5.88264 3.775 5.77639 3.72743 5.69948 3.65052M11 6C11 8.76142 8.76142 11 6 11C3.23858 11 1 8.76142 1 6C1 3.23858 3.23858 1 6 1C8.76142 1 11 3.23858 11 6Z" stroke="black" stroke-width="0.85" stroke-linecap="round" stroke-linejoin="round"/>
</svg>
