<svg width="12" height="12" viewBox="0 0 12 12" fill="none" xmlns="http://www.w3.org/2000/svg">
<path d="M1.23237 7C1.08534 6.74924 1 6.44835 1 6.09406C1 5.26238 1.55147 4.53465 2.36029 4.29208C1.90403 2.57183 3.7439 1.06673 5.30147 1C6.625 1 7.72794 1.79703 8.13235 2.90594C9.57943 2.90594 11 3.86508 11 5.43564C11 5.86444 10.8862 6.26801 10.6872 6.62211C10.6207 6.74044 10.5447 6.85325 10.4602 6.95963M4.5 7.48591L5.66667 8.77822L7.27083 6.67822M9 7.5C9 9.15685 7.65685 10.5 6 10.5C4.34315 10.5 3 9.15685 3 7.5C3 5.84315 4.34315 4.5 6 4.5C7.65685 4.5 9 5.84315 9 7.5Z" stroke="black" stroke-linecap="round" stroke-linejoin="round"/>
</svg>
