<svg width="12" height="12" viewBox="0 0 12 12" fill="none" xmlns="http://www.w3.org/2000/svg">
<path d="M9.49265 7.72277C10.375 7.30693 11 6.44059 11 5.43564C11 3.86508 9.57943 2.90594 8.13235 2.90594C7.72794 1.79703 6.625 1 5.30147 1C3.7439 1.06673 1.90403 2.57183 2.36029 4.29208C1.55147 4.53465 1 5.26238 1 6.09406C1 6.96153 1.51159 7.50884 2.18782 7.78419M5.90002 7V8.25M5.90002 7L5.01614 7.36612M5.90002 7L6.78393 7.36621M5.90002 8.25V9.5M5.90002 8.25L5.01614 7.36612M5.90002 8.25L6.78391 9.13388M5.90002 8.25L6.78393 7.36621M5.90002 8.25L5.01616 9.13398M5.90002 8.25H4.65002M5.90002 8.25H7.15002M5.90002 8.25L5.27502 7.16747M5.90002 8.25L6.52502 9.33253M5.90002 8.25L4.69262 7.92648M5.90002 8.25L7.10743 8.57352M5.90002 8.25L6.22361 7.04267M5.90002 8.25L5.57656 9.45748M5.90002 8.25L4.81749 8.875M5.90002 8.25L6.98256 7.625M5.90002 9.5L6.78391 9.13388M5.90002 9.5L5.01616 9.13398M5.01614 7.36612L4.65002 8.25M6.78391 9.13388L7.15002 8.25M6.78393 7.36621L7.15002 8.25M5.01616 9.13398L4.65002 8.25M5.27502 7.16747L4.69262 7.92648M5.27502 7.16747L6.22361 7.04267M6.52502 9.33253L7.10743 8.57352M6.52502 9.33253L5.57656 9.45748M4.69262 7.92648L4.81749 8.875M7.10743 8.57352L6.98256 7.625M6.22361 7.04267L6.98256 7.625M5.57656 9.45748L4.81749 8.875M5.57653 7.04259L4.81752 7.625L4.69264 8.57352L5.27509 9.33262L6.22357 9.45741L6.98258 8.875L7.10746 7.92648L6.52509 7.16755L5.57653 7.04259Z" stroke="black" stroke-width="0.833333" stroke-linecap="round" stroke-linejoin="round"/>
</svg>
