<svg width="12" height="12" viewBox="0 0 12 12" fill="none" xmlns="http://www.w3.org/2000/svg">
<path d="M6.02502 7.75V9M6.02502 7.75L5.14114 8.11612M6.02502 7.75L6.90893 8.11621M6.02502 9V10.25M6.02502 9L5.14114 8.11612M6.02502 9L6.90891 9.88388M6.02502 9L6.90893 8.11621M6.02502 9L5.14116 9.88398M6.02502 9H4.77502M6.02502 9H7.27502M6.02502 9L5.40002 7.91747M6.02502 9L6.65002 10.0825M6.02502 9L4.81762 8.67648M6.02502 9L7.23243 9.32352M6.02502 9L6.34861 7.79267M6.02502 9L5.70156 10.2075M6.02502 9L4.94249 9.625M6.02502 9L7.10756 8.375M6.02502 10.25L6.90891 9.88388M6.02502 10.25L5.14116 9.88398M5.14114 8.11612L4.77502 9M6.90891 9.88388L7.27502 9M6.90893 8.11621L7.27502 9M5.14116 9.88398L4.77502 9M5.40002 7.91747L4.81762 8.67648M5.40002 7.91747L6.34861 7.79267M6.65002 10.0825L7.23243 9.32352M6.65002 10.0825L5.70156 10.2075M4.81762 8.67648L4.94249 9.625M7.23243 9.32352L7.10756 8.375M6.34861 7.79267L7.10756 8.375M5.70156 10.2075L4.94249 9.625M9.03303 7.88709C9.1743 7.84672 9.33237 7.79315 9.49265 7.72277C10 7.5 11 6.44059 11 5.43564C11 3.86508 9.57943 2.90594 8.13235 2.90594C7.72794 1.79703 6.625 1 5.30147 1C3.7439 1.06673 1.90403 2.57183 2.36029 4.29208C1.55147 4.53465 1 5.26238 1 6.09406C1 7.23264 1.88132 7.81966 2.85948 7.96414M5.70153 7.79259L4.94252 8.375L4.81764 9.32352L5.40009 10.0826L6.34857 10.2074L7.10758 9.625L7.23246 8.67648L6.65009 7.91755L5.70153 7.79259Z" stroke="black" stroke-linecap="round" stroke-linejoin="round"/>
</svg>
