<svg width="12" height="12" viewBox="0 0 12 12" fill="none" xmlns="http://www.w3.org/2000/svg">
<path d="M9.49265 7.72277C10.375 7.30693 11 6.44059 11 5.43564C11 3.86508 9.57943 2.90594 8.13235 2.90594C7.72794 1.79703 6.625 1 5.30147 1C3.7439 1.06673 1.90403 2.57183 2.36029 4.29208C1.55147 4.53465 1 5.26238 1 6.09406C1 6.96153 1.51159 7.50884 2.18782 7.78419M5.89999 7.375V8M5.89999 7.375L5.45805 7.55806M5.89999 7.375L6.34194 7.55811M5.89999 8V8.625M5.89999 8L5.45805 7.55806M5.89999 8L6.34194 8.44194M5.89999 8L6.34194 7.55811M5.89999 8L5.45806 8.44199M5.89999 8H5.27499M5.89999 8H6.52499M5.89999 8L5.58749 7.45873M5.89999 8L6.21249 8.54127M5.89999 8L5.29629 7.83824M5.89999 8L6.5037 8.16176M5.89999 8L6.06179 7.39633M5.89999 8L5.73826 8.60374M5.89999 8L5.35873 8.3125M5.89999 8L6.44126 7.6875M5.89999 8.625L6.34194 8.44194M5.89999 8.625L5.45806 8.44199M5.45805 7.55806L5.27499 8M6.34194 8.44194L6.52499 8M6.34194 7.55811L6.52499 8M5.45806 8.44199L5.27499 8M5.58749 7.45873L5.29629 7.83824M5.58749 7.45873L6.06179 7.39633M6.21249 8.54127L6.5037 8.16176M6.21249 8.54127L5.73826 8.60374M5.29629 7.83824L5.35873 8.3125M6.5037 8.16176L6.44126 7.6875M6.06179 7.39633L6.44126 7.6875M5.73826 8.60374L5.35873 8.3125" stroke="black" stroke-linecap="round" stroke-linejoin="round"/>
</svg>
