<svg width="12" height="12" viewBox="0 0 12 12" fill="none" xmlns="http://www.w3.org/2000/svg">
<path d="M7.5 5V2.24962C7.5 1.83712 7.1625 1.5 6.75037 1.5H2.25113C1.83788 1.5 1.5 1.83788 1.5 2.25113V6.75112C1.5 7.16287 1.83712 7.5 2.24887 7.5H3M1.7205 1.7205L5.75 6M9.25 10.2498V9.5H10.75V11H9.25767L9.25 10.2498ZM9.25 10.2498H8.75C8.19772 10.2498 7.75 9.80213 7.75 9.24985V8.25M9.25 6.24985V5.5H10.75V7H9.25767L9.25 6.24985ZM9.25 6.24985H8.75C8.19772 6.24985 7.75 6.69756 7.75 7.24985V8.25M6.25 8.25V7.5H4.75V8.24985L4.75767 9H6.25V8.25ZM6.25 8.25H7.75" stroke="black" stroke-miterlimit="10" stroke-linecap="round" stroke-linejoin="round"/>
</svg>
