<svg width="12" height="12" viewBox="0 0 12 12" fill="none" xmlns="http://www.w3.org/2000/svg">
<path d="M9.25 9.25L8.5 8.55981V7.25M1.5 4V9.75C1.5 10.1642 1.83579 10.5 2.25 10.5H5M1.5 4V2.75C1.5 2.33579 1.83579 2 2.25 2H4M1.5 4H10.5M10.5 4V2.75C10.5 2.33579 10.1642 2 9.75 2H7.98857M10.5 4V5M4 2V1M4 2V2.75M4 2H7.98857M7.98857 2V2.75M7.98857 2V1M11 8.5C11 9.88071 9.88071 11 8.5 11C7.11929 11 6 9.88071 6 8.5C6 7.6822 6.39267 6.95611 6.99976 6.5C7.41763 6.18604 7.93709 6 8.5 6C9.88071 6 11 7.11929 11 8.5Z" stroke="black" stroke-linecap="round" stroke-linejoin="round"/>
</svg>
