<svg width="12" height="12" viewBox="0 0 12 12" fill="none" xmlns="http://www.w3.org/2000/svg">
<path d="M9.25656 9.44043C9.53872 9.12813 9.71125 8.70977 9.71125 8.25C9.71125 7.2835 8.94883 6.5 8.00835 6.5C7.06786 6.5 6.30545 7.2835 6.30545 8.25C6.30545 9.2165 7.06786 10 8.00835 10C8.50144 10 8.94558 9.78463 9.25656 9.44043ZM9.25656 9.44043L10.8054 11M1 2.41667C1 3.19914 2.6915 3.83333 4.77778 3.83333C6.86406 3.83333 8.55556 3.19914 8.55556 2.41667M1 2.41667C1 1.63419 2.6915 1 4.77778 1C6.86406 1 8.55556 1.63419 8.55556 2.41667M1 2.41667V5.25M8.55556 2.41667V5.01389M1 5.25C1 6.03247 2.6915 6.66667 4.77778 6.66667M1 5.25V8.08333C1 8.86581 2.6915 9.5 4.77778 9.5" stroke="black" stroke-linecap="round" stroke-linejoin="round"/>
</svg>
