<svg width="12" height="12" viewBox="0 0 12 12" fill="none" xmlns="http://www.w3.org/2000/svg">
<path d="M2 3C2 3.39782 2.42143 3.77936 3.17157 4.06066C3.92172 4.34196 4.93913 4.5 6 4.5C7.06087 4.5 8.07828 4.34196 8.82843 4.06066C9.57857 3.77936 10 3.39782 10 3M2 3C2 2.60218 2.42143 2.22064 3.17157 1.93934C3.92172 1.65804 4.93913 1.5 6 1.5C7.06087 1.5 8.07828 1.65804 8.82843 1.93934C9.57857 2.22064 10 2.60218 10 3M2 3V6M10 3V6M2 6C2 6.39782 2.42143 6.77936 3.17157 7.06066C3.92172 7.34196 4.93913 7.5 6 7.5C7.06087 7.5 8.07828 7.34196 8.82843 7.06066C9.57857 6.77936 10 6.39782 10 6M2 6V9C2 9.39782 2.42143 9.77936 3.17157 10.0607C3.92172 10.342 4.93913 10.5 6 10.5C7.06087 10.5 8.07828 10.342 8.82843 10.0607C9.57857 9.77936 10 9.39782 10 9V6" stroke="black" stroke-linecap="round" stroke-linejoin="round"/>
</svg>
