<svg width="12" height="12" viewBox="0 0 12 12" fill="none" xmlns="http://www.w3.org/2000/svg">
<path d="M1.49561 2.41667C1.49561 3.19914 3.18711 3.83333 5.27338 3.83333C7.35966 3.83333 9.05116 3.19914 9.05116 2.41667M1.49561 2.41667C1.49561 1.63419 3.18711 1 5.27338 1C7.35966 1 9.05116 1.63419 9.05116 2.41667M1.49561 2.41667V5.25M9.05116 2.41667V4.65625M1.49561 5.25V8.08333C1.49561 8.83141 3.04166 9.44396 5.00065 9.49636M1.49561 5.25C1.49561 5.99808 3.04166 6.61062 5.00065 6.66303M9.56639 9.65241L9.2478 10.4815M9.2478 10.4815L10.0443 11M9.2478 10.4815C10.239 10.3519 11 9.55556 11 8.5C11 7.55556 10.3982 6.75926 9.56639 6.5M7.93143 7.375L8.25002 6.51852M8.25002 6.51852L7.45356 6M8.25002 6.51852C7.25886 6.64815 6.4978 7.44444 6.4978 8.5C6.4978 9.44444 7.09957 10.2407 7.93143 10.5" stroke="black" stroke-miterlimit="10" stroke-linecap="round" stroke-linejoin="round"/>
</svg>
