<svg width="12" height="12" viewBox="0 0 12 12" fill="none" xmlns="http://www.w3.org/2000/svg">
<path d="M5.38462 10.1327H1.97436C1.71594 10.1327 1.46811 10.0316 1.28538 9.85171C1.10266 9.67183 1 9.42786 1 9.17347V2.45918C1 2.20479 1.10266 1.96082 1.28538 1.78094C1.46811 1.60106 1.71594 1.5 1.97436 1.5H8.79487C9.05329 1.5 9.30112 1.60106 9.48385 1.78094C9.66657 1.96082 9.76923 2.20479 9.76923 2.45918V5.81633M1 4.85714H9.76923M4.41026 1.5V10.1327M7.82051 8.93878C7.82051 9.0768 7.87184 9.20916 7.9632 9.30676C8.05457 9.40435 8.17848 9.45918 8.30769 9.45918C8.4369 9.45918 8.56082 9.40435 8.65218 9.30676C8.74354 9.20916 8.79487 9.0768 8.79487 8.93878C8.79487 8.80075 8.74354 8.66839 8.65218 8.57079C8.56082 8.4732 8.4369 8.41837 8.30769 8.41837C8.17848 8.41837 8.05457 8.4732 7.9632 8.57079C7.87184 8.66839 7.82051 8.80075 7.82051 8.93878ZM10.5 8.93878C9.91538 9.97959 9.18462 10.5 8.30769 10.5C7.43077 10.5 6.7 9.97959 6.11538 8.93878C6.7 7.89796 7.43077 7.37755 8.30769 7.37755C9.18462 7.37755 9.91538 7.89796 10.5 8.93878Z" stroke="black" stroke-linecap="round" stroke-linejoin="round"/>
</svg>
