<svg width="12" height="12" viewBox="0 0 12 12" fill="none" xmlns="http://www.w3.org/2000/svg">
<path d="M8.09285 9.81844L7.82641 9.39534L8.09285 9.81844ZM6.12939 10.4806L6.08317 9.9827L6.12939 10.4806ZM4.06659 10.1922L4.24842 9.72641L4.06659 10.1922ZM2.39161 9.0214L2.01453 9.34975L2.39161 9.0214ZM1.98922 7.14147C1.9322 6.87128 1.66694 6.69848 1.39675 6.7555C1.12656 6.81253 0.953752 7.07779 1.01078 7.34798L1.98922 7.14147ZM8.39642 1.89651C8.20116 2.09177 8.20116 2.40835 8.39642 2.60361C8.59169 2.79888 8.90827 2.79888 9.10353 2.60361L8.39642 1.89651ZM10 1L10.3536 0.646447C10.2598 0.552678 10.1326 0.5 10 0.5C9.86743 0.5 9.74025 0.552678 9.64648 0.646447L10 1ZM5.2 5.2V4.7C4.92386 4.7 4.7 4.92386 4.7 5.2H5.2ZM7 5.2H7.5C7.5 4.92386 7.27614 4.7 7 4.7V5.2ZM7 7V7.5C7.27614 7.5 7.5 7.27614 7.5 7H7ZM5.2 7H4.7C4.7 7.27614 4.92386 7.5 5.2 7.5V7ZM5.2 1V0.5C4.92386 0.5 4.7 0.723858 4.7 1H5.2ZM7 1H7.5C7.5 0.723858 7.27614 0.5 7 0.5V1ZM7 2.8V3.3C7.27614 3.3 7.5 3.07614 7.5 2.8H7ZM5.2 2.8H4.7C4.7 3.07614 4.92386 3.3 5.2 3.3V2.8ZM1 3.1V2.6C0.723858 2.6 0.5 2.82386 0.5 3.1H1ZM2.8 3.1H3.3C3.3 2.82386 3.07614 2.6 2.8 2.6V3.1ZM2.8 4.9V5.4C3.07614 5.4 3.3 5.17614 3.3 4.9H2.8ZM1 4.9H0.5C0.5 5.17614 0.723858 5.4 1 5.4V4.9ZM10 6.45572H9.5C9.5 7.03309 9.349 7.60309 9.05838 8.11553L9.4933 8.36219L9.92822 8.60886C10.3029 7.94818 10.5 7.20852 10.5 6.45572H10ZM9.4933 8.36219L9.05838 8.11553C8.76763 8.62818 8.34537 9.06854 7.82641 9.39534L8.09285 9.81844L8.35929 10.2415C9.01386 9.82933 9.55364 9.26932 9.92822 8.60886L9.4933 8.36219ZM8.09285 9.81844L7.82641 9.39534C7.30733 9.72222 6.7086 9.92464 6.08317 9.9827L6.12939 10.4806L6.1756 10.9784C6.95477 10.9061 7.70484 10.6537 8.35929 10.2415L8.09285 9.81844ZM6.12939 10.4806L6.08317 9.9827C5.45773 10.0408 4.82733 9.9524 4.24842 9.72641L4.06659 10.1922L3.88476 10.6579C4.60981 10.941 5.39645 11.0507 6.1756 10.9784L6.12939 10.4806ZM4.06659 10.1922L4.24842 9.72641C3.66958 9.50044 3.16189 9.14461 2.76868 8.69305L2.39161 9.0214L2.01453 9.34975C2.5167 9.92644 3.15964 10.3749 3.88476 10.6579L4.06659 10.1922ZM2.39161 9.0214L2.76868 8.69305C2.37563 8.24167 2.10889 7.70848 1.98922 7.14147L1.5 7.24472L1.01078 7.34798C1.16646 8.08559 1.51221 8.77289 2.01453 9.34975L2.39161 9.0214ZM10 6.45572H10.5V1.50003H10H9.5V6.45572H10ZM8.74998 2.25006L9.10353 2.60361L10.3536 1.35355L10 1L9.64648 0.646447L8.39642 1.89651L8.74998 2.25006ZM10 1L9.64648 1.35355L10.8965 2.60361L11.2501 2.25006L11.6037 1.89651L10.3536 0.646447L10 1ZM5.2 5.2V5.7H7V5.2V4.7H5.2V5.2ZM7 7V6.5H5.2V7V7.5H7V7ZM7 5.2H6.5V7H7H7.5V5.2H7ZM5.2 1V1.5H7V1V0.5H5.2V1ZM7 2.8V2.3H5.2V2.8V3.3H7V2.8ZM7 1H6.5V2.8H7H7.5V1H7ZM1 3.1V3.6H2.8V3.1V2.6H1V3.1ZM2.8 4.9V4.4H1V4.9V5.4H2.8V4.9ZM1 4.9H1.5V3.1H1H0.5V4.9H1ZM2.8 3.1H2.3V4H2.8H3.3V3.1H2.8ZM2.8 4H2.3V4.9H2.8H3.3V4H2.8ZM4.078 5.2H4.578V4H4.078H3.578V5.2H4.078ZM4.078 4H4.578V2.8H4.078H3.578V4H4.078ZM2.8 4V4.5H4.078V4V3.5H2.8V4ZM5.2 2.8H5.7V1.9H5.2H4.7V2.8H5.2ZM5.2 1.9H5.7V1H5.2H4.7V1.9H5.2ZM5.2 7H5.7V6.1H5.2H4.7V7H5.2ZM5.2 6.1H5.7V5.2H5.2H4.7V6.1H5.2ZM4.078 5.2H3.578C3.578 5.70089 3.74583 6.11377 4.13195 6.36052C4.46477 6.57322 4.87564 6.6 5.2 6.6V6.1V5.6C4.89021 5.6 4.74008 5.56239 4.67044 5.51789C4.64816 5.50366 4.63259 5.4878 4.61809 5.4564C4.60076 5.41886 4.578 5.34225 4.578 5.2H4.078ZM4.078 2.8H4.578C4.578 2.66217 4.60144 2.58813 4.61903 2.55178C4.63421 2.52039 4.65201 2.50168 4.67924 2.48464C4.75654 2.43627 4.91197 2.4 5.2 2.4V1.9V1.4C4.88803 1.4 4.48246 1.42812 4.14876 1.63694C3.76334 1.87813 3.578 2.28624 3.578 2.8H4.078Z" fill="black"/>
</svg>
