<svg width="12" height="12" viewBox="0 0 12 12" fill="none" xmlns="http://www.w3.org/2000/svg">
<path d="M5.49999 7.234C5.49999 7.51015 5.72385 7.734 5.99999 7.734C6.27613 7.734 6.49999 7.51015 6.49999 7.234H5.49999ZM6.49999 4.91197C6.49999 4.63582 6.27613 4.41197 5.99999 4.41197C5.72385 4.41197 5.49999 4.63582 5.49999 4.91197H6.49999ZM5.50899 3.00003C5.50899 3.27617 5.73285 3.50003 6.00899 3.50003C6.28513 3.50003 6.50899 3.27617 6.50899 3.00003H5.50899ZM3.71433 0.499985C3.43819 0.499985 3.21433 0.723842 3.21433 0.999985C3.21433 1.27613 3.43819 1.49998 3.71433 1.49998V0.499985ZM8.30442 1.49998C8.58056 1.49998 8.80442 1.27613 8.80442 0.999985C8.80442 0.723842 8.58056 0.499985 8.30442 0.499985V1.49998ZM10 7H9.5C9.5 8.933 7.933 10.5 6 10.5V11V11.5C8.48528 11.5 10.5 9.48528 10.5 7H10ZM6 11V10.5C4.067 10.5 2.5 8.933 2.5 7H2H1.5C1.5 9.48528 3.51472 11.5 6 11.5V11ZM2 7H2.5C2.5 5.067 4.067 3.5 6 3.5V3V2.5C3.51472 2.5 1.5 4.51472 1.5 7H2ZM6 3V3.5C7.933 3.5 9.5 5.067 9.5 7H10H10.5C10.5 4.51472 8.48528 2.5 6 2.5V3ZM5.99999 7.234H6.49999V4.91197H5.99999H5.49999V7.234H5.99999ZM6.297 7.27004H5.797C5.797 7.15296 5.89191 7.05804 6.00899 7.05804V7.55804V8.05804C6.4442 8.05804 6.797 7.70524 6.797 7.27004H6.297ZM6.00899 7.55804V7.05804C6.12607 7.05804 6.22099 7.15296 6.22099 7.27004H5.72099H5.22099C5.22099 7.70524 5.57379 8.05804 6.00899 8.05804V7.55804ZM5.72099 7.27004H6.22099C6.22099 7.38712 6.12607 7.48203 6.00899 7.48203V6.98203V6.48203C5.57379 6.48203 5.22099 6.83483 5.22099 7.27004H5.72099ZM6.00899 6.98203V7.48203C5.89191 7.48203 5.797 7.38712 5.797 7.27004H6.297H6.797C6.797 6.83483 6.44419 6.48203 6.00899 6.48203V6.98203ZM6.00899 3.00003H6.50899V0.999985H6.00899H5.50899V3.00003H6.00899ZM6.00899 0.999985V0.499985H3.71433V0.999985V1.49998H6.00899V0.999985ZM6.00899 0.999985V1.49998H8.30442V0.999985V0.499985H6.00899V0.999985Z" fill="black"/>
</svg>
