<svg width="12" height="12" viewBox="0 0 12 12" fill="none" xmlns="http://www.w3.org/2000/svg">
<path d="M3.5 9.75H2C1.58579 9.75 1.25 9.41421 1.25 9V2.75C1.25 2.48685 1.46332 2.25 1.72647 2.25H4.5L5.5 3.5H10.25C10.5261 3.5 10.75 3.72386 10.75 4M9.27901 9.26714C9.59252 8.92014 9.78423 8.4553 9.78423 7.94444C9.78423 6.87056 8.9371 6 7.89211 6C6.84713 6 6 6.87056 6 7.94444C6 9.01833 6.84713 9.88889 7.89211 9.88889C8.43999 9.88889 8.93348 9.64959 9.27901 9.26714ZM9.27901 9.26714L11 11" stroke="black" stroke-miterlimit="10" stroke-linecap="round" stroke-linejoin="round"/>
</svg>
