<svg width="12" height="12" viewBox="0 0 12 12" fill="none" xmlns="http://www.w3.org/2000/svg">
<path d="M4.98639 8.29518C5.4645 9.24713 6.67812 9.93992 8.72058 9.77711L10.7794 10.5L10.1912 8.98193C10.7059 8.54819 11 7.93373 11 7.28313C11 6.19716 10.1708 5.26134 9 4.88886M4.98639 8.29518C4.82765 7.97912 4.74999 7.6345 4.74999 7.28313C4.74999 5.83735 6.14705 4.71687 7.87499 4.71687C8.27174 4.71687 8.65105 4.77784 9 4.88886M4.98639 8.29518H4.08824L1.33088 9.23494L2.10294 7.24699C1.40441 6.63253 1 5.80121 1 4.93374C1 3.01807 2.91177 1.5 5.22795 1.5C7.46775 1.5 9 2.59073 9 4.88886" stroke="black" stroke-miterlimit="10" stroke-linejoin="round"/>
</svg>
