<svg width="12" height="12" viewBox="0 0 12 12" fill="none" xmlns="http://www.w3.org/2000/svg">
<path d="M5.21389 5.21502C5.00555 5.42344 4.88853 5.70608 4.88858 6.00077C4.88864 6.29546 5.00575 6.57807 5.21417 6.78641C5.42258 6.99475 5.70523 7.11177 5.99992 7.11172C6.29461 7.11166 6.57721 6.99455 6.78556 6.78613M8.60056 8.59613C7.82124 9.08371 6.91925 9.33941 6 9.33335C4 9.33335 2.33333 8.22224 1 6.00002C1.70667 4.82224 2.50667 3.95668 3.4 3.40335M4.98889 2.76668C5.32169 2.69931 5.66045 2.66581 6 2.66668C8 2.66668 9.66667 3.77779 11 6.00002C10.63 6.61668 10.2339 7.14835 9.81222 7.59446M1 1L11 11" stroke="black" stroke-linecap="round" stroke-linejoin="round"/>
</svg>
