<svg width="12" height="12" viewBox="0 0 12 12" fill="none" xmlns="http://www.w3.org/2000/svg">
<path d="M6.26667 4.93328L2 9.19995L3.6 10.8M5.73333 8.66662L4.13333 7.06662M5.73333 3.33328C5.73333 3.89908 5.9581 4.4417 6.35817 4.84178C6.75825 5.24186 7.30087 5.46662 7.86667 5.46662C8.43246 5.46662 8.97508 5.24186 9.37516 4.84178C9.77524 4.4417 10 3.89908 10 3.33328C10 2.76749 9.77524 2.22487 9.37516 1.82479C8.97508 1.42471 8.43246 1.19995 7.86667 1.19995C7.30087 1.19995 6.75825 1.42471 6.35817 1.82479C5.9581 2.22487 5.73333 2.76749 5.73333 3.33328Z" stroke="black" stroke-linecap="round" stroke-linejoin="round"/>
</svg>
