<svg width="12" height="12" viewBox="0 0 12 12" fill="none" xmlns="http://www.w3.org/2000/svg">
<path d="M2 2.25C2 2.11193 2.11193 2 2.25 2H9.75C9.88807 2 10 2.11193 10 2.25V3.75C10 3.88807 9.88807 4 9.75 4H2.25C2.11193 4 2 3.88807 2 3.75V2.25Z" stroke="black" stroke-linejoin="round"/>
<path d="M2 6.25C2 6.11193 2.11193 6 2.25 6H4.25C4.38807 6 4.5 6.11193 4.5 6.25V9.75C4.5 9.88807 4.38807 10 4.25 10H2.25C2.11193 10 2 9.88807 2 9.75V6.25Z" stroke="black" stroke-linejoin="round"/>
<path d="M6.5 6.25C6.5 6.11193 6.61193 6 6.75 6H9.75C9.88807 6 10 6.11193 10 6.25V9.75C10 9.88807 9.88807 10 9.75 10H6.75C6.61193 10 6.5 9.88807 6.5 9.75V6.25Z" stroke="black" stroke-linejoin="round"/>
</svg>
