<svg width="12" height="12" viewBox="0 0 12 12" fill="none" xmlns="http://www.w3.org/2000/svg">
<path d="M1.5 1.75C1.5 1.61193 1.61193 1.5 1.75 1.5H10.25C10.3881 1.5 10.5 1.61193 10.5 1.75V3.5C10.5 3.63807 10.3881 3.75 10.25 3.75H1.75C1.61193 3.75 1.5 3.63807 1.5 3.5V1.75Z" stroke="black" stroke-linejoin="round"/>
<path d="M1.5 6.25C1.5 6.11193 1.61193 6 1.75 6H4.0625C4.20057 6 4.3125 6.11193 4.3125 6.25V10.25C4.3125 10.3881 4.20057 10.5 4.0625 10.5H1.75C1.61193 10.5 1.5 10.3881 1.5 10.25V6.25Z" stroke="black" stroke-linejoin="round"/>
<path d="M6.5625 6.25C6.5625 6.11193 6.67443 6 6.8125 6H10.25C10.3881 6 10.5 6.11193 10.5 6.25V10.25C10.5 10.3881 10.3881 10.5 10.25 10.5H6.8125C6.67443 10.5 6.5625 10.3881 6.5625 10.25V6.25Z" stroke="black" stroke-linejoin="round"/>
</svg>
