<svg width="12" height="12" viewBox="0 0 12 12" fill="none" xmlns="http://www.w3.org/2000/svg">
<path d="M5.45885 6.88156C4.91773 6.34497 4.99504 5.38676 5.61346 4.77351L7.89388 2.51215C8.51231 1.8989 9.47859 1.82224 10.0197 2.35884L10.6381 2.97209C11.1792 3.50868 11.1019 4.46689 10.4835 5.08014L8.20309 7.3415C7.73928 7.80144 7.12086 7.95475 6.61839 7.80144M6.54114 5.11842C7.08226 5.65502 7.00496 6.61322 6.38653 7.22647L4.10611 9.48783C3.48769 10.1011 2.5214 10.1777 1.98028 9.64114L1.36186 9.02789C0.820745 8.4913 0.898048 7.5331 1.51647 6.91984L3.7969 4.65848C4.26071 4.19854 4.87913 4.04523 5.3816 4.19854" stroke="black" stroke-miterlimit="10" stroke-linecap="round" stroke-linejoin="round"/>
</svg>
