<svg width="12" height="12" viewBox="0 0 12 12" fill="none" xmlns="http://www.w3.org/2000/svg">
<path d="M6.00029 8.91667V7.67455M6.00029 7.67455H5.2M6.00029 7.67455L6.8 7.66667M3.31943 5.30902V3.71545C3.31943 2.99527 3.60187 2.30458 4.10463 1.79534C4.60739 1.28609 5.28928 1 6.00029 1C6.7113 1 7.39319 1.28609 7.89595 1.79534C8.39871 2.30458 8.68116 2.99527 8.68116 3.71545V5.30902M9 11H3C2.44772 11 2 10.5523 2 10V6.30902C2 5.75674 2.44772 5.30902 3 5.30902H9C9.55228 5.30902 10 5.75674 10 6.30902V10C10 10.5523 9.55228 11 9 11Z" stroke="black" stroke-linecap="round" stroke-linejoin="round"/>
</svg>
