<svg width="12" height="12" viewBox="0 0 12 12" fill="none" xmlns="http://www.w3.org/2000/svg">
<path d="M4.33333 1L4.33333 9.75M7.66667 2.25L7.66667 11M4.14699 9.84317L1.60301 10.6985C1.32596 10.837 1 10.6356 1 10.3258V2.50751C1 2.34969 1.08917 2.20542 1.23033 2.13484L4.14699 1.09317C4.2643 1.03452 4.40237 1.03452 4.51967 1.09317L7.48033 2.15683C7.59763 2.21548 7.7357 2.21548 7.85301 2.15683L10.397 1.3015C10.674 1.16298 11 1.36444 11 1.67418V9.49249C11 9.65031 10.9108 9.79458 10.7697 9.86516L7.85301 10.9068C7.7357 10.9655 7.59763 10.9655 7.48033 10.9068L4.51967 9.84317C4.40237 9.78452 4.2643 9.78452 4.14699 9.84317Z" stroke="black"/>
</svg>
