<svg width="14" height="14" viewBox="0 0 14 14" fill="none" xmlns="http://www.w3.org/2000/svg">
<path d="M5 1L5 11.5M9 2.5L9 13M4.77639 11.6118L1.72361 12.6382C1.39116 12.8044 1 12.5627 1 12.191V2.80902C1 2.61963 1.107 2.4465 1.27639 2.3618L4.77639 1.1118C4.91716 1.04142 5.08284 1.04142 5.22361 1.1118L8.77639 2.3882C8.91716 2.45858 9.08284 2.45858 9.22361 2.3882L12.2764 1.3618C12.6088 1.19558 13 1.43733 13 1.80902V11.191C13 11.3804 12.893 11.5535 12.7236 11.6382L9.22361 12.8882C9.08284 12.9586 8.91716 12.9586 8.77639 12.8882L5.22361 11.6118C5.08284 11.5414 4.91716 11.5414 4.77639 11.6118Z" stroke="black"/>
</svg>
