<svg width="12" height="12" viewBox="0 0 12 12" fill="none" xmlns="http://www.w3.org/2000/svg">
<path d="M2.5 5.5V6.5M2.5 5.5V6M2.5 5.5L2.14645 5.64645M2.5 5.5L2.85356 5.64648M2.5 6.5V6M2.5 6.5L2.85355 6.35355M2.5 6.5L2.14645 6.35359M2.14645 5.64645L2.5 6M2.14645 5.64645L2 6M2.85355 6.35355L2.5 6M2.85355 6.35355L3 6M2.85356 5.64648L2.14645 6.35359M2.85356 5.64648L2.5 6M2.85356 5.64648L3 6M2.14645 6.35359L2.5 6M2.14645 6.35359L2 6M2 6H3M2 6H2.5M3 6H2.5M6 5.5V6.5M6 5.5L5.64645 5.64645M6 5.5L6.35356 5.64648M6 6.5L6.35355 6.35355M6 6.5L5.64645 6.35359M5.64645 5.64645L6.35355 6.35355M5.64645 5.64645L5.5 6M6.35355 6.35355L6.5 6M6.35356 5.64648L5.64645 6.35359M6.35356 5.64648L6.5 6M5.64645 6.35359L5.5 6M5.5 6H6.5M9.5 5.5V6.5M9.5 5.5L9.14645 5.64645M9.5 5.5L9.85356 5.64648M9.5 6.5L9.85355 6.35355M9.5 6.5L9.14645 6.35359M9.14645 5.64645L9.85355 6.35355M9.14645 5.64645L9 6M9.85355 6.35355L10 6M9.85356 5.64648L9.14645 6.35359M9.85356 5.64648L10 6M9.14645 6.35359L9 6M9 6H10" stroke="black" stroke-linejoin="round"/>
</svg>
