<svg width="12" height="12" viewBox="0 0 12 12" fill="none" xmlns="http://www.w3.org/2000/svg">
<path d="M4.38182 6.36124V2.3252C4.38182 2.13348 4.45798 1.94962 4.59355 1.81405C4.72911 1.67849 4.91298 1.60233 5.10469 1.60233C5.29641 1.60233 5.48027 1.67849 5.61584 1.81405C5.7514 1.94962 5.82756 2.13348 5.82756 2.3252M5.82756 2.3252V5.81909M5.82756 2.3252V1.72287C5.82756 1.62794 5.84626 1.53394 5.88258 1.44624C5.91891 1.35854 5.97216 1.27885 6.03928 1.21172C6.10641 1.1446 6.1861 1.09135 6.2738 1.05502C6.3615 1.0187 6.4555 1 6.55043 1C6.64536 1 6.73935 1.0187 6.82706 1.05502C6.91476 1.09135 6.99445 1.1446 7.06157 1.21172C7.1287 1.27885 7.18194 1.35854 7.21827 1.44624C7.2546 1.53394 7.2733 1.62794 7.2733 1.72287V5.81909M7.2733 2.3252C7.2733 2.13348 7.34945 1.94962 7.48502 1.81405C7.62058 1.67849 7.80445 1.60233 7.99616 1.60233C8.18788 1.60233 8.37174 1.67849 8.50731 1.81405C8.64287 1.94962 8.71903 2.13348 8.71903 2.3252V6.18052M8.71921 4.01192C8.71921 3.8202 8.79537 3.63634 8.93093 3.50078C9.0665 3.36521 9.25036 3.28905 9.44208 3.28905C9.63379 3.28905 9.81766 3.36521 9.95322 3.50078C10.0888 3.63634 10.1649 3.8202 10.1649 4.01192V6.90339C10.1649 7.32506 10.1046 8.71056 9.38172 9.61415C8.11657 11.0599 8.70285 10.9996 7.93598 10.9996H6.30966H6.40989C5.93104 10.9997 6.12881 10.9996 5.64961 10.9996C4.89055 10.3222 4.43658 9.65682 3.9001 8.83104C3.74974 8.6002 2.99841 7.48891 2.09289 5.87933C2.00058 5.71525 1.97593 5.52164 2.02417 5.33966C2.0724 5.15768 2.18973 5.00171 2.3512 4.9049C2.52318 4.80171 2.72472 4.75894 2.92379 4.78339C3.12286 4.80783 3.30805 4.8981 3.44996 5.03984L4.32182 6.36124" stroke="black" stroke-linecap="round" stroke-linejoin="round"/>
</svg>
