<svg width="13" height="14" viewBox="0 0 13 14" fill="none" xmlns="http://www.w3.org/2000/svg">
<path d="M3.85815 7.43349V2.59024C3.85815 2.36018 3.94954 2.13954 4.11222 1.97686C4.2749 1.81419 4.49553 1.7228 4.72559 1.7228C4.95565 1.7228 5.17629 1.81419 5.33897 1.97686C5.50164 2.13954 5.59304 2.36018 5.59304 2.59024M5.59304 2.59024V6.78291M5.59304 2.59024V1.86744C5.59304 1.75353 5.61547 1.64073 5.65907 1.53549C5.70266 1.43024 5.76655 1.33462 5.8471 1.25407C5.92765 1.17352 6.02328 1.10962 6.12852 1.06603C6.23376 1.02244 6.34656 1 6.46048 1C6.57439 1 6.68719 1.02244 6.79243 1.06603C6.89768 1.10962 6.9933 1.17352 7.07385 1.25407C7.1544 1.33462 7.2183 1.43024 7.26189 1.53549C7.30548 1.64073 7.32792 1.75353 7.32792 1.86744V6.78291M7.32792 2.59024C7.32792 2.36018 7.41931 2.13954 7.58199 1.97686C7.74466 1.81419 7.9653 1.7228 8.19536 1.7228C8.42542 1.7228 8.64606 1.81419 8.80873 1.97686C8.97141 2.13954 9.0628 2.36018 9.0628 2.59024V7.21663M9.06302 4.6143C9.06302 4.38424 9.15441 4.16361 9.31708 4.00093C9.47976 3.83825 9.7004 3.74686 9.93046 3.74686C10.1605 3.74686 10.3812 3.83825 10.5438 4.00093C10.7065 4.16361 10.7979 4.38424 10.7979 4.6143V8.08407C10.7979 8.59008 10.7255 10.2527 9.85803 11.337C8.33985 13.0719 9.04338 12.9996 8.12314 12.9996H6.17155H6.29184C5.71721 12.9997 5.95454 12.9996 5.37949 12.9996C4.46863 12.1866 3.92386 11.3882 3.28008 10.3972C3.09965 10.1202 2.19805 8.7867 1.11144 6.85519C1.00066 6.6583 0.971075 6.42596 1.02896 6.20759C1.08685 5.98922 1.22764 5.80205 1.4214 5.68588C1.62778 5.56205 1.86962 5.51073 2.10851 5.54006C2.34739 5.5694 2.56963 5.67772 2.73991 5.84781L3.78615 7.43349" stroke="black" stroke-linecap="round" stroke-linejoin="round"/>
</svg>
