<svg width="12" height="12" viewBox="0 0 12 12" fill="none" xmlns="http://www.w3.org/2000/svg">
<path d="M6 3.5V8.5M6 3.5L5.0433 3.6903M6 3.5L6.95672 3.69031M6 8.5L6.95671 8.3097M6 8.5L5.0433 8.30971M3.5 6H8.5M3.5 6L3.69031 6.95658M3.5 6L3.69031 5.04324M8.5 6L8.30971 5.04316M8.5 6L8.3097 6.95665M4.23223 4.23223L7.76777 7.76777M4.23223 4.23223L3.69031 5.04324M4.23223 4.23223L5.0433 3.6903M7.76777 7.76777L8.3097 6.95665M7.76777 7.76777L6.95671 8.3097M7.76777 4.23218L4.23224 7.76771M7.76777 4.23218L6.95672 3.69031M7.76777 4.23218L8.30971 5.04316M4.23224 7.76771L5.0433 8.30971M4.23224 7.76771L3.69031 6.95658M3.69031 5.04324L8.3097 6.95665M3.69031 6.95658L8.30971 5.04316M5.0433 3.6903L6.95671 8.3097M6.95672 3.69031L5.0433 8.30971" stroke="black" stroke-linejoin="round"/>
</svg>
