<svg width="12" height="12" viewBox="0 0 12 12" fill="none" xmlns="http://www.w3.org/2000/svg">
<path d="M5.27571 6.90199L2.34908 9.62704L5.08274 6.70901C4.78969 6.41596 4.34796 6.04586 3.75691 5.31291C3.22297 4.65079 3.29959 4.11534 3.86455 3.87228C4.42952 3.62922 5.10572 3.87202 5.63515 4.35504C6.24748 3.91083 6.55472 3.59395 7.19074 3.0551C6.75896 2.54104 6.78032 1.84579 7.29235 1.5924C7.80438 1.33901 8.15967 1.63632 8.5288 2.00541C8.90477 2.38133 9.2648 2.738 9.2648 2.738C9.2648 2.738 9.60339 3.07995 9.97931 3.45592C10.3484 3.82505 10.6457 4.18034 10.3923 4.69237C10.1389 5.2044 9.44368 5.22576 8.92962 4.79398C8.39077 5.43 8.07389 5.73724 7.62968 6.34957C8.1127 6.87901 8.3555 7.55521 8.11244 8.12017C7.86939 8.68514 7.33393 8.76175 6.67181 8.22781C5.93886 7.63676 5.56876 7.19503 5.27571 6.90199Z" stroke="black" stroke-linecap="round" stroke-linejoin="round"/>
</svg>
