<svg width="12" height="12" viewBox="0 0 12 12" fill="none" xmlns="http://www.w3.org/2000/svg">
<path d="M6 6L1.8295 1.8295M6 6L10.1705 10.1705M6 6L10.1705 1.8295M6 6L1.8295 10.1705M1.8295 1.8295C2.03309 1.62592 2.31434 1.5 2.625 1.5H9.375C9.68566 1.5 9.96691 1.62592 10.1705 1.8295M1.8295 1.8295C1.62592 2.03309 1.5 2.31434 1.5 2.625V9.375C1.5 9.68566 1.62592 9.96691 1.8295 10.1705M10.1705 10.1705C10.3741 9.96691 10.5 9.68566 10.5 9.375V2.625C10.5 2.31434 10.3741 2.03309 10.1705 1.8295M10.1705 10.1705C9.96691 10.3741 9.68566 10.5 9.375 10.5H2.625C2.31434 10.5 2.03309 10.3741 1.8295 10.1705M9.9375 6C9.9375 8.17462 8.17462 9.9375 6 9.9375C3.82538 9.9375 2.0625 8.17462 2.0625 6C2.0625 3.82538 3.82538 2.0625 6 2.0625C8.17462 2.0625 9.9375 3.82538 9.9375 6Z" stroke="black" stroke-linejoin="round"/>
</svg>
