<svg width="12" height="12" viewBox="0 0 12 12" fill="none" xmlns="http://www.w3.org/2000/svg">
<path d="M6 4.5H2.5C2.23478 4.5 1.98043 4.60536 1.79289 4.79289C1.60536 4.98043 1.5 5.23478 1.5 5.5V7.5C1.5 7.76522 1.60536 8.01957 1.79289 8.20711C1.98043 8.39464 2.23478 8.5 2.5 8.5H4M6 7.5H9.5C9.76522 7.5 10.0196 7.39464 10.2071 7.20711C10.3946 7.01957 10.5 6.76522 10.5 6.5V4.5C10.5 4.23478 10.3946 3.98043 10.2071 3.79289C10.0196 3.60536 9.76522 3.5 9.5 3.5H8M4 4.5V2.5C4 2.23478 4.10536 1.98043 4.29289 1.79289C4.48043 1.60536 4.73478 1.5 5 1.5H7C7.26522 1.5 7.51957 1.60536 7.70711 1.79289C7.89464 1.98043 8 2.23478 8 2.5V5C8 5.26522 7.89464 5.51957 7.70711 5.70711C7.51957 5.89464 7.26522 6 7 6H5C4.73478 6 4.48043 6.10536 4.29289 6.29289C4.10536 6.48043 4 6.73478 4 7V9.5C4 9.76522 4.10536 10.0196 4.29289 10.2071C4.48043 10.3946 4.73478 10.5 5 10.5H7C7.26522 10.5 7.51957 10.3946 7.70711 10.2071C7.89464 10.0196 8 9.76522 8 9.5V7.5M5.5 3V3.005M6.5 9V9.005" stroke="black" stroke-linecap="round" stroke-linejoin="round"/>
</svg>
