<svg width="12" height="12" viewBox="0 0 12 12" fill="none" xmlns="http://www.w3.org/2000/svg">
<path d="M7.49819 2V4.99788M7.49819 4.99788V5.00212M7.49819 4.99788L10 3.4968M7.49819 4.99788L7.49466 5M7.49819 5.00212V8M7.49819 5.00212L7.49466 5M7.49819 5.00212L9.99999 6.5032M7.49466 5L5.00001 6.4968M7.49466 5L5 3.5032M2.5 9.245H3.2381M3.2381 9.245H3.245M3.2381 9.245L3.245 9.25189M3.2381 9.245L2.71626 8.72315M3.245 9.245H3.26215M3.245 9.245L3.245 9.25189M3.245 9.245V8.5M3.26215 9.245H4M3.26215 9.245L3.78387 8.72327M3.26215 9.245L3.25012 9.25702M3.245 10V9.26215M3.245 9.26215V9.25189M3.245 9.26215L3.25012 9.25702M3.245 9.26215L2.72321 9.78393M3.245 9.25189L3.25012 9.25702M3.25012 9.25702L3.77692 9.78381M4 9.25C4 9.66421 3.66421 10 3.25 10C2.83579 10 2.5 9.66421 2.5 9.25C2.5 8.83579 2.83579 8.5 3.25 8.5C3.66421 8.5 4 8.83579 4 9.25Z" stroke="black" stroke-linecap="round" stroke-linejoin="round"/>
</svg>
