<svg width="12" height="12" viewBox="0 0 12 12" fill="none" xmlns="http://www.w3.org/2000/svg">
<path d="M3.7 5.23077V3.96154H1V6.5H3.7V5.23077ZM3.7 5.23077H5.617M5.617 5.23077V3.53846C5.617 2.45084 6.4 2.26923 7.3 2.26923M5.617 5.23077V6.07692M7.3 2.26923V3.53846H10V1H7.3V2.26923ZM8.5 7.5V8.55981L9.18884 9.24866M11 8.5C11 9.88071 9.88071 11 8.5 11C7.11929 11 6 9.88071 6 8.5C6 7.11929 7.11929 6 8.5 6C9.88071 6 11 7.11929 11 8.5Z" stroke="black" stroke-miterlimit="10" stroke-linecap="round" stroke-linejoin="round"/>
</svg>
