<svg width="12" height="12" viewBox="0 0 12 12" fill="none" xmlns="http://www.w3.org/2000/svg">
<path d="M10.5 4.25V3.5L6 1M6 1L1.5 3.5M6 1V4.25M1.5 3.5V8.5M1.5 3.5L5.29344 5.63381M1.5 8.5L4.5 6.9M1.5 8.5L4.5 10.25M8.50018 9.75V9.00473M8.50018 9.00473H8M8.50018 9.00473L9 9M6.82464 7.58541V6.62927C6.82464 6.19716 7.00117 5.78275 7.31539 5.4772C7.62962 5.17165 8.0558 5 8.50018 5C8.94456 5 9.37074 5.17165 9.68497 5.4772C9.99919 5.78275 10.1757 6.19716 10.1757 6.62927V7.58541M11 7.58541H6V11H11V7.58541Z" stroke="black" stroke-linecap="round" stroke-linejoin="round"/>
</svg>
