<svg width="12" height="12" viewBox="0 0 12 12" fill="none" xmlns="http://www.w3.org/2000/svg">
<path d="M1 5.8963H11M3.74998 7.76798C3.74998 8.19765 3.84095 8.57983 4.02289 8.91452C4.20079 9.25373 4.45955 9.51832 4.79917 9.70828C5.13475 9.90276 5.54513 10 6.0303 10C6.51548 10 6.92383 9.91633 7.25537 9.74898C7.58286 9.58616 7.83151 9.3668 8.00133 9.09091C8.16709 8.81954 8.24998 8.51651 8.24998 8.18182C8.24998 7.94664 8.20955 7.72954 8.12868 7.53053C8.0675 7.38339 7.97739 7.24271 7.85834 7.10851M8.24998 4.10325C8.24998 3.69837 8.15901 3.33824 7.97707 3.02286C7.79917 2.70321 7.54041 2.45389 7.20079 2.27489C6.86521 2.09163 6.45483 2 5.96965 2C5.48448 2 5.07612 2.07885 4.74459 2.23654C4.41709 2.38996 4.16844 2.59667 3.99863 2.85664C3.83286 3.11235 3.74998 3.3979 3.74998 3.71328C3.74998 3.9349 3.79041 4.13947 3.87127 4.327C3.95213 4.51026 4.08354 4.68286 4.26548 4.84482C4.3533 4.91928 4.45419 4.99184 4.56816 5.0625C4.77429 5.16667 5.45236 5.45312 5.7656 5.70312" stroke="black" stroke-linecap="round" stroke-linejoin="round"/>
</svg>
