<svg width="12" height="12" viewBox="0 0 12 12" fill="none" xmlns="http://www.w3.org/2000/svg">
<path d="M4.24809 4.68946C4.24809 4.82205 4.30077 4.94922 4.39452 5.04298C4.48828 5.13673 4.61545 5.18941 4.74804 5.18941C4.88064 5.18941 5.0078 5.13673 5.10156 5.04298C5.19532 4.94922 5.24799 4.82205 5.24799 4.68946C5.24799 4.55686 5.19532 4.4297 5.10156 4.33594C5.0078 4.24218 4.88064 4.18951 4.74804 4.18951C4.61545 4.18951 4.48828 4.24218 4.39452 4.33594C4.30077 4.4297 4.24809 4.55686 4.24809 4.68946Z" stroke="black" stroke-linecap="round" stroke-linejoin="round"/>
<path d="M2 3.49985V6.0856C2.00006 6.35077 2.10544 6.60506 2.29297 6.79254L6.1476 10.6472C6.37355 10.8731 6.67999 11 6.99952 11C7.31904 11 7.62548 10.8731 7.85143 10.6472L10.6472 7.85143C10.8731 7.62548 11 7.31904 11 6.99952C11 6.67999 10.8731 6.37355 10.6472 6.1476L6.79254 2.29297C6.60506 2.10544 6.35077 2.00006 6.0856 2H3.49985C3.10207 2 2.72057 2.15802 2.4393 2.4393C2.15802 2.72057 2 3.10207 2 3.49985Z" stroke="black" stroke-linecap="round" stroke-linejoin="round"/>
</svg>
