<svg width="12" height="12" viewBox="0 0 12 12" fill="none" xmlns="http://www.w3.org/2000/svg">
<path d="M5.8097 7.23463C5.68406 6.99198 5.49991 6.7715 5.26777 6.58579C5.03562 6.40007 4.76002 6.25275 4.45671 6.15224C4.15339 6.05173 3.8283 6 3.5 6C3.17169 6 2.84661 6.05173 2.54329 6.15224C2.23998 6.25275 1.96438 6.40007 1.73223 6.58579C1.50009 6.7715 1.31594 6.99198 1.1903 7.23463C1.06466 7.47728 1 7.73736 1 8M11 10C11 9.73736 10.9353 9.47728 10.8097 9.23463C10.6841 8.99198 10.4999 8.7715 10.2678 8.58579C10.0356 8.40007 9.76002 8.25275 9.45671 8.15224C9.15339 8.05173 8.8283 8 8.5 8C8.1717 8 7.84661 8.05173 7.54329 8.15224C7.23998 8.25275 6.96438 8.40007 6.73223 8.58579C6.50009 8.7715 6.31594 8.99198 6.1903 9.23463C6.06466 9.47728 6 9.73736 6 10M5 3C5 3.82843 4.32843 4.5 3.5 4.5C2.67157 4.5 2 3.82843 2 3C2 2.17157 2.67157 1.5 3.5 1.5C4.32843 1.5 5 2.17157 5 3ZM10 5C10 5.82843 9.32843 6.5 8.5 6.5C7.67157 6.5 7 5.82843 7 5C7 4.17157 7.67157 3.5 8.5 3.5C9.32843 3.5 10 4.17157 10 5Z" stroke="black" stroke-linecap="round"/>
</svg>
