<svg width="12" height="12" viewBox="0 0 12 12" fill="none" xmlns="http://www.w3.org/2000/svg">
<path d="M1 7.81156L1.00002 2.26946C1.00002 2.26946 1.32648 1.50635 2.05 1.50635C2.77352 1.50635 3.1779 2.26962 3.1779 2.26962L3.18293 2.47563M1 7.81156C1 7.81156 1.03969 6.82487 2.05 6.82487C3.06031 6.82487 3.18248 7.6 3.18248 7.6L3.18293 2.47563M1 7.81156C1 8.6955 1.49137 9.11264 2.18908 9.11264H9.10787V2.47563H3.18293M2.7043 10.6779H7.04576L10.7918 10.6903L10.7813 3.85204M5.00001 5.71758H7.00001M5.97191 4.76922V6.76922" stroke="black" stroke-linecap="round" stroke-linejoin="round"/>
</svg>
