<svg width="12" height="12" viewBox="0 0 12 12" fill="none" xmlns="http://www.w3.org/2000/svg">
<path d="M6.00005 10.5C8.48533 10.5 10.5001 8.48528 10.5001 6C10.5001 3.51472 8.48533 1.5 6.00005 1.5C4.75741 1.5 3.63241 2.00368 2.81807 2.81802M6.00005 3.2V6.10767L7.23997 7.34758M2.81807 2.81802V1M2.81807 2.81802H4.50008M1.67037 7.23083C1.71781 7.39775 1.77469 7.56089 1.84042 7.71958C1.92601 7.92621 2.0266 8.1253 2.14092 8.31544M1.55981 5.26662C1.62845 4.84784 1.75439 4.44965 1.92898 4.07985M4.54251 10.2586C4.14805 10.1239 3.77921 9.93615 3.44396 9.70435" stroke="black" stroke-miterlimit="10" stroke-linecap="round" stroke-linejoin="round"/>
</svg>
