<svg width="12" height="12" viewBox="0 0 12 12" fill="none" xmlns="http://www.w3.org/2000/svg">
<path d="M3 3.10814L4.37479 2.55823V5.58277M7 7.54992L8.37479 7V10.0245M7.5 5.38333H8.26165C8.5378 5.38333 8.76165 5.15947 8.76165 4.88333V3C8.76165 2.72386 8.5378 2.5 8.26165 2.5H7.5C7.22386 2.5 7 2.72386 7 3V4.88333C7 5.15947 7.22386 5.38333 7.5 5.38333ZM4 9.88333H4.76165C5.0378 9.88333 5.26165 9.65947 5.26165 9.38333V7.5C5.26165 7.22386 5.0378 7 4.76165 7H4C3.72386 7 3.5 7.22386 3.5 7.5V9.38333C3.5 9.65947 3.72386 9.88333 4 9.88333Z" stroke="black" stroke-linecap="round" stroke-linejoin="round"/>
</svg>
