<svg width="12" height="12" viewBox="0 0 12 12" fill="none" xmlns="http://www.w3.org/2000/svg">
<path d="M3.30957 3.10814L4.68436 2.55823V5.58277M6.77588 7.51256L8.15067 6.96265V9.98719M1 2L1 10M11 2V10M7.08276 5.38333H7.84442C8.12056 5.38333 8.34442 5.15947 8.34442 4.88333V3C8.34442 2.72386 8.12056 2.5 7.84442 2.5H7.08276C6.80662 2.5 6.58276 2.72386 6.58276 3V4.88333C6.58276 5.15947 6.80662 5.38333 7.08276 5.38333ZM4.30359 9.7875H5.06524C5.34139 9.7875 5.56524 9.56365 5.56524 9.2875V7.40417C5.56524 7.12803 5.34139 6.90417 5.06524 6.90417H4.30359C4.02745 6.90417 3.80359 7.12803 3.80359 7.40417V9.2875C3.80359 9.56365 4.02745 9.7875 4.30359 9.7875Z" stroke="black" stroke-linecap="round" stroke-linejoin="round"/>
</svg>
