<svg width="12" height="12" viewBox="0 0 12 12" fill="none" xmlns="http://www.w3.org/2000/svg">
<path d="M3 6C3 6.26522 3.10536 6.51957 3.29289 6.70711C3.48043 6.89464 3.73478 7 4 7C4.26522 7 4.51957 6.89464 4.70711 6.70711C4.89464 6.51957 5 6.26522 5 6C5 5.73478 4.89464 5.48043 4.70711 5.29289C4.51957 5.10536 4.26522 5 4 5C3.73478 5 3.48043 5.10536 3.29289 5.29289C3.10536 5.48043 3 5.73478 3 6Z" stroke="black" stroke-linecap="round" stroke-linejoin="round"/>
<path d="M1 6C1 5.20435 1.31607 4.44129 1.87868 3.87868C2.44129 3.31607 3.20435 3 4 3H8C8.79565 3 9.55871 3.31607 10.1213 3.87868C10.6839 4.44129 11 5.20435 11 6C11 6.79565 10.6839 7.55871 10.1213 8.12132C9.55871 8.68393 8.79565 9 8 9H4C3.20435 9 2.44129 8.68393 1.87868 8.12132C1.31607 7.55871 1 6.79565 1 6Z" stroke="black" stroke-linecap="round" stroke-linejoin="round"/>
</svg>
