<svg width="12" height="12" viewBox="0 0 12 12" fill="none" xmlns="http://www.w3.org/2000/svg">
<path d="M3.25053 10.75H1V1.25H3.25053M8.74947 10.75H11V1.25H8.74947M6.875 8.125C6.875 8.42337 6.99353 8.70952 7.2045 8.9205C7.41548 9.13147 7.70163 9.25 8 9.25C8.29837 9.25 8.58452 9.13147 8.7955 8.9205C9.00647 8.70952 9.125 8.42337 9.125 8.125C9.125 7.82663 9.00647 7.54048 8.7955 7.3295C8.58452 7.11853 8.29837 7 8 7C7.70163 7 7.41548 7.11853 7.2045 7.3295C6.99353 7.54048 6.875 7.82663 6.875 8.125ZM2.875 7.375C2.875 7.27554 2.91451 7.18016 2.98484 7.10984C3.05516 7.03951 3.15054 7 3.25 7H4.75C4.84946 7 4.94484 7.03951 5.01516 7.10984C5.08549 7.18016 5.125 7.27554 5.125 7.375V8.875C5.125 8.97446 5.08549 9.06984 5.01516 9.14017C4.94484 9.21049 4.84946 9.25 4.75 9.25H3.25C3.15054 9.25 3.05516 9.21049 2.98484 9.14017C2.91451 9.06984 2.875 8.97446 2.875 8.875V7.375ZM6.00117 2.4554L7.499 5.37308C7.49916 5.37339 7.49914 5.37376 7.49896 5.37406L7.49865 5.37456C7.49847 5.37486 7.49815 5.37504 7.4978 5.37504H4.5022C4.50185 5.37504 4.50153 5.37486 4.50135 5.37456L4.50104 5.37406C4.50086 5.37376 4.50084 5.37339 4.501 5.37308L5.99883 2.4554C5.999 2.45507 5.99935 2.45486 5.99972 2.45486H6.00028C6.00065 2.45486 6.001 2.45507 6.00117 2.4554Z" stroke="black" stroke-linecap="round"/>
</svg>
