<svg width="12" height="12" viewBox="0 0 12 12" fill="none" xmlns="http://www.w3.org/2000/svg">
<path d="M3.25053 10.75H1V1.25H3.25053M8.74947 10.75H11V1.25H8.74947M7 7.7656C7 8.10061 7.13308 8.4219 7.36997 8.65879C7.60686 8.89567 7.92815 9.02876 8.26316 9.02876C8.59817 9.02876 8.91946 8.89567 9.15635 8.65879C9.39323 8.4219 9.52632 8.10061 9.52632 7.7656C9.52632 7.43059 9.39323 7.1093 9.15635 6.87241C8.91946 6.63552 8.59817 6.50244 8.26316 6.50244C7.92815 6.50244 7.60686 6.63552 7.36997 6.87241C7.13308 7.1093 7 7.43059 7 7.7656ZM2.46875 7.7656C2.46875 8.10061 2.60183 8.4219 2.83872 8.65879C3.07561 8.89567 3.3969 9.02876 3.73191 9.02876C4.06692 9.02876 4.38821 8.89567 4.6251 8.65879C4.86198 8.4219 4.99507 8.10061 4.99507 7.7656C4.99507 7.43059 4.86198 7.1093 4.6251 6.87241C4.38821 6.63552 4.06692 6.50244 3.73191 6.50244C3.3969 6.50244 3.07561 6.63552 2.83872 6.87241C2.60183 7.1093 2.46875 7.43059 2.46875 7.7656ZM4.73682 4.23435C4.73682 4.56936 4.8699 4.89065 5.10679 5.12754C5.34368 5.36442 5.66496 5.49751 5.99997 5.49751C6.33499 5.49751 6.65627 5.36442 6.89316 5.12754C7.13005 4.89065 7.26313 4.56936 7.26313 4.23435C7.26313 3.89934 7.13005 3.57805 6.89316 3.34116C6.65627 3.10427 6.33499 2.97119 5.99997 2.97119C5.66496 2.97119 5.34368 3.10427 5.10679 3.34116C4.8699 3.57805 4.73682 3.89934 4.73682 4.23435Z" stroke="black" stroke-linecap="round" stroke-linejoin="round"/>
</svg>
