<svg width="12" height="12" viewBox="0 0 12 12" fill="none" xmlns="http://www.w3.org/2000/svg">
<path d="M4.6765 10C3.87797 9.31052 1.5 7.07808 1.5 4.93452C1.5 4.02363 1.86185 3.15004 2.50595 2.50595C3.15004 1.86185 4.02363 1.5 4.93452 1.5C5.84541 1.5 6.71899 1.86185 7.36309 2.50595C7.80188 2.94474 8.10968 3.49003 8.26132 4.08107M9.11853 9.17834L8.5 8.55981V7.5625M5.63065 4.4375C5.63065 4.85171 5.29486 5.1875 4.88065 5.1875C4.46643 5.1875 4.13065 4.85171 4.13065 4.4375C4.13065 4.02329 4.46643 3.6875 4.88065 3.6875C5.29486 3.6875 5.63065 4.02329 5.63065 4.4375ZM11 8.5C11 9.88071 9.88071 11 8.5 11C7.11929 11 6 9.88071 6 8.5C6 7.11929 7.11929 6 8.5 6C9.88071 6 11 7.11929 11 8.5Z" stroke="black" stroke-miterlimit="10" stroke-linecap="round" stroke-linejoin="round"/>
</svg>
