<svg width="12" height="12" viewBox="0 0 12 12" fill="none" xmlns="http://www.w3.org/2000/svg">
<path d="M5.09091 6H6.90909M6 5.09091V6.90909M5.22806 1.05929C5.47992 1.02023 5.73775 1 6 1C6.26225 1 6.52008 1.02023 6.77194 1.05929M8.90692 1.93142C9.11742 2.08206 9.3157 2.24861 9.50002 2.4293C9.68914 2.6147 9.86361 2.81503 10.0215 3.02841M1.97849 3.02841C2.1364 2.81503 2.31086 2.6147 2.49998 2.4293C2.6843 2.24861 2.88258 2.08207 3.09308 1.93142M1.0624 6.79171C1.0213 6.53358 1 6.26912 1 6C1 5.73088 1.0213 5.46642 1.0624 5.20829M10.9376 5.20829C10.9787 5.46642 11 5.73088 11 6C11 6.26912 10.9787 6.53358 10.9376 6.79171M3.09308 10.0686C2.88258 9.91794 2.6843 9.75139 2.49998 9.5707C2.31086 9.3853 2.1364 9.18497 1.97849 8.97159M10.0215 8.97159C9.86361 9.18497 9.68914 9.3853 9.50002 9.5707C9.3157 9.75139 9.11742 9.91794 8.90692 10.0686M6.77194 10.9407C6.52008 10.9798 6.26225 11 6 11C5.73775 11 5.47992 10.9798 5.22806 10.9407M7.81818 3.72727H4.18182C3.973 3.72727 3.72727 3.973 3.72727 4.18182V7.81818C3.72727 8.027 3.973 8.27273 4.18182 8.27273H7.81818C8.027 8.27273 8.27273 8.027 8.27273 7.81818V4.18182C8.27273 3.973 8.027 3.72727 7.81818 3.72727Z" stroke="black" stroke-linecap="round" stroke-linejoin="round"/>
</svg>
