<svg width="12" height="12" viewBox="0 0 12 12" fill="none" xmlns="http://www.w3.org/2000/svg">
<path d="M5.99999 7.23402V4.91198M6.00899 3.00004V1M6.00899 1H3.71433M6.00899 1H8.30442M10 7.00001C10 9.20915 8.20914 11 6 11C3.79086 11 2 9.20915 2 7.00001C2 4.79088 3.79086 3.00002 6 3.00002C8.20914 3.00002 10 4.79088 10 7.00001ZM6.297 7.27005C6.297 7.42911 6.16805 7.55806 6.00899 7.55806C5.84993 7.55806 5.72099 7.42911 5.72099 7.27005C5.72099 7.11099 5.84993 6.98205 6.00899 6.98205C6.16805 6.98205 6.297 7.11099 6.297 7.27005Z" stroke="black" stroke-linecap="round" stroke-linejoin="round"/>
</svg>
