<svg width="12" height="12" viewBox="0 0 12 12" fill="none" xmlns="http://www.w3.org/2000/svg">
<path d="M9.59999 5.10004C9.59999 7.34692 7.10741 9.68695 6.2704 10.4097C6.19243 10.4683 6.09751 10.5 5.99995 10.5C5.90239 10.5 5.80747 10.4683 5.72949 10.4097C4.89248 9.68695 2.3999 7.34692 2.3999 5.10004C2.3999 4.14525 2.77919 3.22957 3.45433 2.55443C4.12947 1.87929 5.04516 1.5 5.99995 1.5C6.95474 1.5 7.87042 1.87929 8.54556 2.55443C9.2207 3.22957 9.59999 4.14525 9.59999 5.10004Z" stroke="black" stroke-linecap="round" stroke-linejoin="round"/>
<path d="M5.99995 6.45006C6.74554 6.45006 7.34996 5.84564 7.34996 5.10004C7.34996 4.35445 6.74554 3.75003 5.99995 3.75003C5.25435 3.75003 4.64993 4.35445 4.64993 5.10004C4.64993 5.84564 5.25435 6.45006 5.99995 6.45006Z" stroke="black" stroke-linecap="round" stroke-linejoin="round"/>
</svg>
