<svg width="12" height="12" viewBox="0 0 12 12" fill="none" xmlns="http://www.w3.org/2000/svg">
<path d="M8.50011 1.5V1.99961M8.50011 1.99961C8.49512 3.67431 7.66076 5.00877 5.99806 6.0035C4.33535 6.99772 7.66476 5.00427 6.00205 5.9965C4.33935 6.99073 3.504 8.32569 3.5 10.0004V10.5M8.50011 1.99961H3.50403M8.50011 10.5V10.0004C8.49512 8.32569 7.66076 6.99123 5.99806 5.9965C4.33535 5.00228 7.66476 6.99573 6.00205 6.0035C4.33935 5.00877 3.504 3.67431 3.5 1.99961V1.5M3.50403 9.99339H8.50014M4.00364 3.99806H8.00053M4.00364 7.99495H8.00053" stroke="black" stroke-linecap="round" stroke-linejoin="round"/>
</svg>
