<svg width="12" height="12" viewBox="0 0 12 12" fill="none" xmlns="http://www.w3.org/2000/svg">
<path d="M5 4.25C4.33487 4.36074 3.72644 4.69232 3.27287 5.19125C2.8193 5.69018 2.54703 6.32736 2.5 7M7 4.25C7.66513 4.36074 8.27356 4.69232 8.72713 5.19125C9.1807 5.69018 9.45297 6.32736 9.5 7M5 4H2M2 4C2 4.13261 1.94732 4.25979 1.85355 4.35355C1.75979 4.44732 1.63261 4.5 1.5 4.5C1.36739 4.5 1.24021 4.44732 1.14645 4.35355C1.05268 4.25979 1 4.13261 1 4C1 3.86739 1.05268 3.74021 1.14645 3.64645C1.24021 3.55268 1.36739 3.5 1.5 3.5C1.63261 3.5 1.75979 3.55268 1.85355 3.64645C1.94732 3.74021 2 3.86739 2 4ZM10 4H7M10 4C10 4.13261 10.0527 4.25979 10.1464 4.35355C10.2402 4.44732 10.3674 4.5 10.5 4.5C10.6326 4.5 10.7598 4.44732 10.8536 4.35355C10.9473 4.25979 11 4.13261 11 4C11 3.86739 10.9473 3.74021 10.8536 3.64645C10.7598 3.55268 10.6326 3.5 10.5 3.5C10.3674 3.5 10.2402 3.55268 10.1464 3.64645C10.0527 3.74021 10 3.86739 10 4ZM1.5 7.5C1.5 7.36739 1.55268 7.24021 1.64645 7.14645C1.74021 7.05268 1.86739 7 2 7H3C3.13261 7 3.25979 7.05268 3.35355 7.14645C3.44732 7.24021 3.5 7.36739 3.5 7.5V8.5C3.5 8.63261 3.44732 8.75979 3.35355 8.85355C3.25979 8.94732 3.13261 9 3 9H2C1.86739 9 1.74021 8.94732 1.64645 8.85355C1.55268 8.75979 1.5 8.63261 1.5 8.5V7.5ZM8.5 7.5C8.5 7.36739 8.55268 7.24021 8.64645 7.14645C8.74021 7.05268 8.86739 7 9 7H10C10.1326 7 10.2598 7.05268 10.3536 7.14645C10.4473 7.24021 10.5 7.36739 10.5 7.5V8.5C10.5 8.63261 10.4473 8.75979 10.3536 8.85355C10.2598 8.94732 10.1326 9 10 9H9C8.86739 9 8.74021 8.94732 8.64645 8.85355C8.55268 8.75979 8.5 8.63261 8.5 8.5V7.5ZM5 3.5C5 3.36739 5.05268 3.24021 5.14645 3.14645C5.24021 3.05268 5.36739 3 5.5 3H6.5C6.63261 3 6.75979 3.05268 6.85355 3.14645C6.94732 3.24021 7 3.36739 7 3.5V4.5C7 4.63261 6.94732 4.75979 6.85355 4.85355C6.75979 4.94732 6.63261 5 6.5 5H5.5C5.36739 5 5.24021 4.94732 5.14645 4.85355C5.05268 4.75979 5 4.63261 5 4.5V3.5Z" stroke="black" stroke-linecap="round" stroke-linejoin="round"/>
</svg>
