<svg width="12" height="12" viewBox="0 0 12 12" fill="none" xmlns="http://www.w3.org/2000/svg">
<path d="M4.32349 1.00024C3.8639 1.14902 3.52804 1.40533 3.31642 1.77016C3.10479 2.13547 2.99873 2.57641 2.99873 3.09345V4.32983C2.99873 4.72755 2.91624 5.07274 2.75175 5.36587C2.58726 5.65852 2.33635 5.87162 2 6.00567C2.33635 6.14708 2.58726 6.36509 2.75175 6.66069C2.91624 6.95579 2.99873 7.30048 2.99873 7.69575V8.92378C2.99873 9.4418 3.10626 9.8793 3.32182 10.2363C3.53688 10.5927 3.87617 10.8476 4.33969 10.9998M7.61169 10.9996C8.07129 10.8478 8.4096 10.593 8.62712 10.236C8.84415 9.87955 8.95266 9.44156 8.95266 8.92354V7.6955C8.95266 7.28992 9.03761 6.94032 9.2075 6.64718C9.37788 6.35356 9.64205 6.14193 10 6.01083C9.64156 5.88414 9.37739 5.67448 9.2075 5.38183C9.03761 5.0887 8.95266 4.73811 8.95266 4.32958V3.0932C8.95266 2.57273 8.8466 2.13081 8.63497 1.76746C8.42335 1.40411 8.08749 1.14878 7.6279 1" stroke="black" stroke-miterlimit="10" stroke-linecap="round" stroke-linejoin="round"/>
</svg>
