<svg width="12" height="12" viewBox="0 0 12 12" fill="none" xmlns="http://www.w3.org/2000/svg">
<path d="M3.75 4H7.75M3.75 5.98438H6M4.9125 9.34353L3.75 10V8.58824H2.75C2.35218 8.58824 1.97064 8.4395 1.68934 8.17474C1.40804 7.90998 1.25 7.55089 1.25 7.17647V3.41176C1.25 3.03734 1.40804 2.67825 1.68934 2.4135C1.97064 2.14874 2.35218 2 2.75 2H8.75C9.14782 2 9.52936 2.14874 9.81066 2.4135C10.092 2.67825 10.25 3.03734 10.25 3.41176V5.52941M8.75 7L8.1859 8.4359L6.75 9L8.1859 9.5641L8.75 11L9.3141 9.5641L10.75 9L9.3141 8.4359L8.75 7Z" stroke="black" stroke-linecap="round" stroke-linejoin="round"/>
</svg>
