<svg width="12" height="12" viewBox="0 0 12 12" fill="none" xmlns="http://www.w3.org/2000/svg">
<path d="M7.55556 6.44444C7.143 6.44444 6.74734 6.60833 6.45561 6.90006C6.16389 7.19178 6 7.58744 6 8M6 8V8.44444M6 8C6 7.58744 5.83611 7.19178 5.54439 6.90006C5.25267 6.60833 4.857 6.44444 4.44444 6.44444M6 8V3.55556M6 8.44444C6 8.857 6.16389 9.25267 6.45561 9.54439C6.74734 9.83611 7.143 10 7.55556 10C7.96811 10 8.36378 9.83611 8.6555 9.54439C8.94722 9.25267 9.11111 8.857 9.11111 8.44444V7.64444M6 8.44444C6 8.857 5.83611 9.25267 5.54439 9.54439C5.25267 9.83611 4.857 10 4.44444 10C4.03189 10 3.63622 9.83611 3.3445 9.54439C3.05278 9.25267 2.88889 8.857 2.88889 8.44444V7.64444M8.44444 7.77778C8.857 7.77778 9.25267 7.61389 9.54439 7.32217C9.83611 7.03044 10 6.63478 10 6.22222C10 5.80966 9.83611 5.414 9.54439 5.12228C9.25267 4.83056 8.857 4.66667 8.44444 4.66667H8.22222M9.11111 4.8V3.55556C9.11111 3.143 8.94722 2.74734 8.6555 2.45561C8.36378 2.16389 7.96811 2 7.55556 2C7.143 2 6.74734 2.16389 6.45561 2.45561C6.16389 2.74734 6 3.143 6 3.55556M6 3.55556C6 3.143 5.83611 2.74734 5.54439 2.45561C5.25267 2.16389 4.857 2 4.44444 2C4.03189 2 3.63622 2.16389 3.3445 2.45561C3.05278 2.74734 2.88889 3.143 2.88889 3.55556V4.8M3.55556 7.77778C3.143 7.77778 2.74734 7.61389 2.45561 7.32217C2.16389 7.03044 2 6.63478 2 6.22222C2 5.80966 2.16389 5.414 2.45561 5.12228C2.74734 4.83056 3.143 4.66667 3.55556 4.66667H3.77778" stroke="black" stroke-linecap="round" stroke-linejoin="round"/>
</svg>
