<svg width="12" height="12" viewBox="0 0 12 12" fill="none" xmlns="http://www.w3.org/2000/svg">
<path d="M1 1.5V10.5M11 1.5V10.5M2.62708 7.78318H2.47708M2.62708 7.78318C2.62708 7.74176 2.61029 7.70426 2.58314 7.67711M2.62708 7.78318C2.62708 7.8246 2.61029 7.8621 2.58314 7.88925M2.47708 7.93318C2.5185 7.93318 2.556 7.91639 2.58314 7.88925M2.47708 7.93318C2.43565 7.93318 2.39815 7.91639 2.37101 7.88925M2.47708 7.93318V7.78318M2.32708 7.78318H2.47708M2.32708 7.78318C2.32708 7.73894 2.34622 7.69918 2.37668 7.67173M2.32708 7.78318C2.32708 7.8246 2.34386 7.8621 2.37101 7.88925M2.47708 7.63318C2.43847 7.63318 2.40326 7.64777 2.37668 7.67173M2.47708 7.63318C2.5185 7.63318 2.556 7.64997 2.58314 7.67711M2.47708 7.63318V7.78318M2.47708 7.78318L2.37668 7.67173M2.47708 7.78318L2.58314 7.67711M2.47708 7.78318L2.58314 7.88925M2.47708 7.78318L2.37101 7.88925M8.3 4.07336C8.51217 4.07336 8.71566 4.15071 8.86569 4.28838C9.01571 4.42605 9.1 4.61278 9.1 4.80748V7.19252C9.1 7.38722 9.01571 7.57394 8.86569 7.71161C8.71566 7.84929 8.51217 7.92663 8.3 7.92663C8.08783 7.92663 7.88434 7.84929 7.73431 7.71161C7.58429 7.57394 7.5 7.38722 7.5 7.19252V4.80748C7.5 4.61278 7.58429 4.42605 7.73431 4.28838C7.88434 4.15071 8.08783 4.07336 8.3 4.07336ZM4.8 4.07336C5.01217 4.07336 5.21566 4.15071 5.36569 4.28838C5.51571 4.42605 5.6 4.61278 5.6 4.80748V7.19252C5.6 7.38722 5.51571 7.57394 5.36569 7.71161C5.21566 7.84929 5.01217 7.92663 4.8 7.92663C4.58783 7.92663 4.38434 7.84929 4.23431 7.71161C4.08429 7.57394 4 7.38722 4 7.19252V4.80748C4 4.61278 4.08429 4.42605 4.23431 4.28838C4.38434 4.15071 4.58783 4.07336 4.8 4.07336Z" stroke="black" stroke-linecap="round" stroke-linejoin="round"/>
</svg>
