<svg width="12" height="12" viewBox="0 0 12 12" fill="none" xmlns="http://www.w3.org/2000/svg">
<path d="M1 4.82357L2.17647 3.64709V8.35298M4.52941 3.64709H6.29412C6.45013 3.64709 6.59975 3.70907 6.71006 3.81938C6.82038 3.9297 6.88235 4.07932 6.88235 4.23533V5.4118C6.88235 5.56781 6.82038 5.71743 6.71006 5.82775C6.59975 5.93806 6.45013 6.00004 6.29412 6.00004H5.11765C4.96164 6.00004 4.81202 6.06201 4.7017 6.17233C4.59139 6.28264 4.52941 6.43226 4.52941 6.58827V7.76474C4.52941 7.92075 4.59139 8.07037 4.7017 8.18069C4.81202 8.291 4.96164 8.35298 5.11765 8.35298H6.88235M8.64706 3.64709H10.1176C10.3517 3.64709 10.5761 3.74006 10.7416 3.90553C10.907 4.071 11 4.29543 11 4.52945V5.11768C11 5.3517 10.907 5.57613 10.7416 5.7416C10.5761 5.90707 10.3517 6.00004 10.1176 6.00004M10.1176 6.00004H9.23529M10.1176 6.00004C10.3517 6.00004 10.5761 6.093 10.7416 6.25847C10.907 6.42394 11 6.64837 11 6.88239V7.47062C11 7.70464 10.907 7.92907 10.7416 8.09454C10.5761 8.26002 10.3517 8.35298 10.1176 8.35298H8.64706" stroke="black" stroke-linecap="round" stroke-linejoin="round"/>
</svg>
