<svg width="12" height="12" viewBox="0 0 12 12" fill="none" xmlns="http://www.w3.org/2000/svg">
<path d="M1.81494 8.25178H1.56494M1.81494 8.25178C1.81494 8.18274 1.78696 8.12024 1.74172 8.075M1.81494 8.25178C1.81494 8.32082 1.78696 8.38331 1.74172 8.42856M1.31494 8.25178H1.56494M1.31494 8.25178C1.31494 8.17806 1.34685 8.11179 1.39761 8.06603M1.31494 8.25178C1.31494 8.32082 1.34292 8.38331 1.38816 8.42856M1.56494 8.25178L1.39761 8.06603M1.56494 8.25178L1.74172 8.075M1.56494 8.25178L1.74172 8.42856M1.56494 8.25178L1.38816 8.42856M1.39761 8.06603C1.44192 8.02609 1.50059 8.00178 1.56494 8.00178C1.63398 8.00178 1.69648 8.02976 1.74172 8.075M1.74172 8.42856C1.69648 8.4738 1.63398 8.50178 1.56494 8.50178C1.49591 8.50178 1.43341 8.4738 1.38816 8.42856M9.41221 3.49817C9.74976 3.49817 10.0735 3.62996 10.3122 3.86455C10.5509 4.09914 10.6849 4.41732 10.6849 4.74908V7.2509C10.6849 7.58266 10.5509 7.90083 10.3122 8.13542C10.0735 8.37001 9.74976 8.50181 9.41221 8.50181C9.07467 8.50181 8.75094 8.37001 8.51226 8.13542C8.27358 7.90083 8.13949 7.58266 8.13949 7.2509V4.74908C8.13949 4.41732 8.27358 4.09914 8.51226 3.86455C8.75094 3.62996 9.07467 3.49817 9.41221 3.49817ZM4.95767 3.49817C5.29522 3.49817 5.61894 3.62996 5.85762 3.86455C6.0963 4.09914 6.2304 4.41732 6.2304 4.74908V7.2509C6.2304 7.58266 6.0963 7.90083 5.85762 8.13542C5.61894 8.37001 5.29522 8.50181 4.95767 8.50181C4.62012 8.50181 4.2964 8.37001 4.05771 8.13542C3.81903 7.90083 3.68494 7.58266 3.68494 7.2509V4.74908C3.68494 4.41732 3.81903 4.09914 4.05771 3.86455C4.2964 3.62996 4.62012 3.49817 4.95767 3.49817Z" stroke="black" stroke-linejoin="round"/>
</svg>
