<svg width="12" height="12" viewBox="0 0 12 12" fill="none" xmlns="http://www.w3.org/2000/svg">
<path d="M4.59124 4.80287C4.59124 4.49543 4.4284 4.26709 4.13854 4.04969C3.84868 3.8323 3.45555 3.71017 3.04562 3.71017C2.6357 3.71017 2.24256 3.8323 1.9527 4.04969C1.66284 4.26709 1.5 4.56194 1.5 4.86938V7.18782C1.5 7.49526 1.66284 7.79011 1.9527 8.0075C2.24256 8.2249 2.6357 8.34703 3.04562 8.34703C3.45555 8.34703 3.84868 8.2249 4.13854 8.0075C4.4284 7.79011 4.59124 7.58331 4.59124 7.27586M11 3.27051L9.12113 8.72957M7.3927 7.55138H7.15622M7.3927 7.55138C7.3927 7.48608 7.36623 7.42696 7.32344 7.38416M7.3927 7.55138C7.3927 7.61669 7.36623 7.67581 7.32344 7.71861M6.91973 7.55138H7.15622M6.91973 7.55138C6.91973 7.48165 6.94992 7.41896 6.99793 7.37568M6.91973 7.55138C6.91973 7.61669 6.9462 7.67581 6.98899 7.71861M7.15622 7.55138L6.99793 7.37568M7.15622 7.55138L7.32344 7.38416M7.15622 7.55138L7.32344 7.71861M7.15622 7.55138L6.98899 7.71861M6.99793 7.37568C7.03985 7.3379 7.09535 7.3149 7.15622 7.3149C7.22152 7.3149 7.28064 7.34137 7.32344 7.38416M7.32344 7.71861C7.28064 7.7614 7.22152 7.78787 7.15622 7.78787C7.09091 7.78787 7.03179 7.7614 6.98899 7.71861M7.3927 5.14069H7.15622M7.3927 5.14069C7.3927 5.07539 7.36623 5.01627 7.32344 4.97347M7.3927 5.14069C7.3927 5.20599 7.36623 5.26511 7.32344 5.30791M6.91973 5.14069H7.15622M6.91973 5.14069C6.91973 5.07095 6.94992 5.00827 6.99793 4.96498M6.91973 5.14069C6.91973 5.20599 6.9462 5.26511 6.98899 5.30791M7.15622 5.14069L6.99793 4.96498M7.15622 5.14069L7.32344 4.97347M7.15622 5.14069L7.32344 5.30791M7.15622 5.14069L6.98899 5.30791M6.99793 4.96498C7.03985 4.9272 7.09535 4.9042 7.15622 4.9042C7.22152 4.9042 7.28064 4.93067 7.32344 4.97347M7.32344 5.30791C7.28064 5.35071 7.22152 5.37718 7.15622 5.37718C7.09091 5.37718 7.03179 5.35071 6.98899 5.30791" stroke="black" stroke-linecap="round" stroke-linejoin="round"/>
</svg>
