<svg width="12" height="12" viewBox="0 0 12 12" fill="none" xmlns="http://www.w3.org/2000/svg">
<path d="M3.77778 3.77778C3.77778 4.01353 3.68413 4.23962 3.51743 4.40632C3.35073 4.57302 3.12464 4.66667 2.88889 4.66667C2.65314 4.66667 2.42705 4.57302 2.26035 4.40632C2.09365 4.23962 2 4.01353 2 3.77778C2 3.54203 2.09365 3.31594 2.26035 3.14924C2.42705 2.98254 2.65314 2.88889 2.88889 2.88889C3.12464 2.88889 3.35073 2.98254 3.51743 3.14924C3.68413 3.31594 3.77778 3.54203 3.77778 3.77778ZM3.77778 3.77778L7.33333 3.33333M7.33333 3.33333C7.33333 3.68696 7.47381 4.02609 7.72386 4.27614C7.97391 4.52619 8.31304 4.66667 8.66667 4.66667C9.02029 4.66667 9.35943 4.52619 9.60948 4.27614C9.85952 4.02609 10 3.68696 10 3.33333C10 2.97971 9.85952 2.64057 9.60948 2.39052C9.35943 2.14048 9.02029 2 8.66667 2C8.31304 2 7.97391 2.14048 7.72386 2.39052C7.47381 2.64057 7.33333 2.97971 7.33333 3.33333ZM4.66667 8.22222L6.88889 7.55556M3.55556 4.44444L7.02667 6.83111M6.88889 7.33333C6.88889 7.56908 6.98254 7.79517 7.14924 7.96187C7.31594 8.12857 7.54203 8.22222 7.77778 8.22222C8.01353 8.22222 8.23962 8.12857 8.40632 7.96187C8.57302 7.79517 8.66667 7.56908 8.66667 7.33333C8.66667 7.09759 8.57302 6.87149 8.40632 6.70479C8.23962 6.5381 8.01353 6.44444 7.77778 6.44444C7.54203 6.44444 7.31594 6.5381 7.14924 6.70479C6.98254 6.87149 6.88889 7.09759 6.88889 7.33333ZM2 8.66667C2 9.02029 2.14048 9.35943 2.39052 9.60948C2.64057 9.85952 2.97971 10 3.33333 10C3.68696 10 4.02609 9.85952 4.27614 9.60948C4.52619 9.35943 4.66667 9.02029 4.66667 8.66667C4.66667 8.31304 4.52619 7.97391 4.27614 7.72386C4.02609 7.47381 3.68696 7.33333 3.33333 7.33333C2.97971 7.33333 2.64057 7.47381 2.39052 7.72386C2.14048 7.97391 2 8.31304 2 8.66667Z" stroke="black" stroke-linecap="round" stroke-linejoin="round"/>
</svg>
