<svg width="12" height="12" viewBox="0 0 12 12" fill="none" xmlns="http://www.w3.org/2000/svg">
<path d="M1.5 3.75V2.625C1.5 2.32663 1.61853 2.04048 1.8295 1.8295C2.04048 1.61853 2.32663 1.5 2.625 1.5H3.75M1.5 8.25V9.375C1.5 9.67337 1.61853 9.95952 1.8295 10.1705C2.04048 10.3815 2.32663 10.5 2.625 10.5H3.75M8.25 1.5H9.375C9.67337 1.5 9.95952 1.61853 10.1705 1.8295C10.3815 2.04048 10.5 2.32663 10.5 2.625V3.75M8.25 10.5H9.375C9.67337 10.5 9.95952 10.3815 10.1705 10.1705C10.3815 9.95952 10.5 9.67337 10.5 9.375V8.25M3.75 6H8.25M3.75 4.3125H7.125M3.75 7.6875H6" stroke="black" stroke-linecap="round" stroke-linejoin="round"/>
</svg>
