<svg width="12" height="12" viewBox="0 0 12 12" fill="none" xmlns="http://www.w3.org/2000/svg">
<path d="M9.31706 3.91865H8.08135V2.68294L9.52301 1.24129C9.06183 1.02103 8.54371 0.94917 8.04 1.03559C7.53628 1.12202 7.07175 1.36248 6.71037 1.72386C6.34898 2.08524 6.10852 2.54978 6.0221 3.05349C5.93568 3.5572 6.00754 4.07532 6.22779 4.5365L2.25592 8.50837C2.09206 8.67224 2 8.89449 2 9.12622C2 9.35796 2.09206 9.58021 2.25592 9.74408C2.41979 9.90794 2.64204 10 2.87378 10C3.10551 10 3.32776 9.90794 3.49163 9.74408L7.4635 5.77221C7.92468 5.99246 8.4428 6.06432 8.94651 5.9779C9.45022 5.89148 9.91476 5.65102 10.2761 5.28963C10.6375 4.92825 10.878 4.46372 10.9644 3.96C11.0508 3.45629 10.979 2.93817 10.7587 2.47699L9.31706 3.91865Z" stroke="black" stroke-linecap="round" stroke-linejoin="round"/>
</svg>
