<svg width="12" height="12" viewBox="0 0 12 12" fill="none" xmlns="http://www.w3.org/2000/svg">
<path d="M7 2L5 10M10 2L8 10M3 4.5H2.5M3 4.5C3 4.36193 2.94404 4.23693 2.85355 4.14645M3 4.5C3 4.63807 2.94404 4.76307 2.85355 4.85355M2 4.5H2.5M2 4.5C2 4.35255 2.06382 4.22002 2.16535 4.1285M2 4.5C2 4.63807 2.05596 4.76307 2.14645 4.85355M2.5 4.5L2.16535 4.1285M2.5 4.5L2.85355 4.14645M2.5 4.5L2.85355 4.85355M2.5 4.5L2.14645 4.85355M2.16535 4.1285C2.25396 4.04862 2.3713 4 2.5 4C2.63807 4 2.76307 4.05596 2.85355 4.14645M2.85355 4.85355C2.76307 4.94404 2.63807 5 2.5 5C2.36193 5 2.23693 4.94404 2.14645 4.85355M3 7.5H2.5M3 7.5C3 7.36193 2.94404 7.23693 2.85355 7.14645M3 7.5C3 7.63807 2.94404 7.76307 2.85355 7.85355M2 7.5H2.5M2 7.5C2 7.35255 2.06382 7.22002 2.16535 7.1285M2 7.5C2 7.63807 2.05596 7.76307 2.14645 7.85355M2.5 7.5L2.16535 7.1285M2.5 7.5L2.85355 7.14645M2.5 7.5L2.85355 7.85355M2.5 7.5L2.14645 7.85355M2.16535 7.1285C2.25396 7.04862 2.3713 7 2.5 7C2.63807 7 2.76307 7.05596 2.85355 7.14645M2.85355 7.85355C2.76307 7.94404 2.63807 8 2.5 8C2.36193 8 2.23693 7.94404 2.14645 7.85355" stroke="black" stroke-linecap="round" stroke-linejoin="round"/>
</svg>
