<svg width="12" height="12" viewBox="0 0 12 12" fill="none" xmlns="http://www.w3.org/2000/svg">
<path d="M5.5 5.16667H2.38889C2.15314 5.16667 1.92705 5.26032 1.76035 5.42702C1.59365 5.59372 1.5 5.81981 1.5 6.05556V7.83333C1.5 8.06908 1.59365 8.29517 1.76035 8.46187C1.92705 8.62857 2.15314 8.72222 2.38889 8.72222H3.72222M5.5 7.83333H8.61111C8.84686 7.83333 9.07295 7.73968 9.23965 7.57298C9.40635 7.40628 9.5 7.18019 9.5 6.94444V5.16667M3.72222 5.16667V3.38889C3.72222 3.15314 3.81587 2.92705 3.98257 2.76035C4.14927 2.59365 4.37536 2.5 4.61111 2.5H6.38889C6.54627 2.5 6.69935 2.54174 6.83333 2.61909M7.27778 7.83333V9.61111C7.27778 9.84686 7.18413 10.073 7.01743 10.2397C6.85073 10.4063 6.62464 10.5 6.38889 10.5H4.61111C4.37536 10.5 4.14927 10.4063 3.98257 10.2397C3.81587 10.073 3.72222 9.84686 3.72222 9.61111V7.38889C3.72222 7.15314 3.81587 6.92705 3.98257 6.76035C4.14927 6.59365 4.37536 6.5 4.61111 6.5H6.38889C6.62464 6.5 6.85073 6.40635 7.01743 6.23965C7.18413 6.07295 7.27778 5.84686 7.27778 5.61111V4.28494M5.05556 3.83333V3.83778M5.94444 9.16667V9.17111" stroke="black" stroke-linecap="round" stroke-linejoin="round"/>
<circle cx="9.5" cy="2.5" r="2" fill="#FF4B4B"/>
</svg>
