<svg width="12" height="12" viewBox="0 0 12 12" fill="none" xmlns="http://www.w3.org/2000/svg">
<path d="M6.50312 4H4.6C4.04305 4 3.5089 4.22125 3.11508 4.61508C2.72125 5.0089 2.5 5.54305 2.5 6.1C2.5 6.65696 2.72125 7.1911 3.11508 7.58492C3.5089 7.97875 4.04305 8.2 4.6 8.2H7.4C7.95695 8.2 8.4911 7.97875 8.88492 7.58492C9.27875 7.1911 9.5 6.65696 9.5 6.1C9.5 5.85924 9.45866 5.62274 9.3799 5.4M3.25053 10.75H1V1.25H3.25053M8.60738 10.75H11V4.625M3.9 6.1C3.9 6.28565 3.97375 6.4637 4.10503 6.59497C4.2363 6.72625 4.41435 6.8 4.6 6.8C4.78565 6.8 4.9637 6.72625 5.09497 6.59497C5.22625 6.4637 5.3 6.28565 5.3 6.1C5.3 5.91435 5.22625 5.7363 5.09497 5.60503C4.9637 5.47375 4.78565 5.4 4.6 5.4C4.41435 5.4 4.2363 5.47375 4.10503 5.60503C3.97375 5.7363 3.9 5.91435 3.9 6.1Z" stroke="black" stroke-linecap="round" stroke-linejoin="round"/>
<circle cx="9.5" cy="2.5" r="2" fill="#FF4B4B"/>
</svg>
