<svg width="12" height="12" viewBox="0 0 12 12" fill="none" xmlns="http://www.w3.org/2000/svg">
<path d="M9.50232 5.24077V6.93513C9.50232 7.18314 9.40208 7.421 9.22365 7.59637C9.04522 7.77174 8.80322 7.87026 8.55088 7.87026C8.29854 7.87026 8.05654 7.77174 7.87811 7.59637C7.69968 7.421 7.59944 7.18314 7.59944 6.93513V5.06487C7.59944 5.01785 7.60304 4.9712 7.6101 4.92527M2.87146 7.68335H2.68457M2.87146 7.68335C2.87146 7.63174 2.85054 7.58502 2.81672 7.5512M2.87146 7.68335C2.87146 7.73496 2.85054 7.78168 2.81672 7.8155M2.49768 7.68335H2.68457M2.49768 7.68335C2.49768 7.62824 2.52154 7.5787 2.55948 7.54449M2.49768 7.68335C2.49768 7.73496 2.5186 7.78168 2.55242 7.8155M2.68457 7.68335L2.55948 7.54449M2.68457 7.68335L2.81672 7.5512M2.68457 7.68335L2.81672 7.8155M2.68457 7.68335L2.55242 7.8155M2.55948 7.54449C2.59261 7.51463 2.63647 7.49646 2.68457 7.49646C2.73618 7.49646 2.7829 7.51738 2.81672 7.5512M2.81672 7.8155C2.7829 7.84932 2.73618 7.87024 2.68457 7.87024C2.63296 7.87024 2.58624 7.84932 2.55242 7.8155M3.25053 10.75H1V1.25H3.25053M8.60738 10.75H11V4.625M5.22084 4.12974C5.47318 4.12974 5.71518 4.22826 5.89361 4.40363C6.07204 4.579 6.17228 4.81686 6.17228 5.06487V6.93513C6.17228 7.18314 6.07204 7.421 5.89361 7.59637C5.71518 7.77174 5.47318 7.87026 5.22084 7.87026C4.9685 7.87026 4.7265 7.77174 4.54807 7.59637C4.36964 7.421 4.2694 7.18314 4.2694 6.93513V5.06487C4.2694 4.81686 4.36964 4.579 4.54807 4.40363C4.7265 4.22826 4.9685 4.12974 5.22084 4.12974Z" stroke="black" stroke-linecap="round" stroke-linejoin="round"/>
<circle cx="9.5" cy="2.5" r="2" fill="#FF4B4B"/>
</svg>
