<svg width="12" height="12" viewBox="0 0 12 12" fill="none" xmlns="http://www.w3.org/2000/svg">
<path d="M2.5 5.125L3.32353 4.25V7.75M4.97059 4.25H6.20588C6.31509 4.25 6.41982 4.29609 6.49704 4.37814C6.57426 4.46019 6.61765 4.57147 6.61765 4.6875V5.5625C6.61765 5.67853 6.57426 5.78981 6.49704 5.87186C6.41982 5.95391 6.31509 6 6.20588 6H5.38235C5.27315 6 5.16841 6.04609 5.09119 6.12814C5.01397 6.21019 4.97059 6.32147 4.97059 6.4375V7.3125C4.97059 7.42853 5.01397 7.53981 5.09119 7.62186C5.16841 7.70391 5.27315 7.75 5.38235 7.75H6.61765M8.88235 6C9.04616 6 9.20326 5.93086 9.31909 5.80779C9.43493 5.68472 9.5 5.5178 9.5 5.34375V5.125M8.88235 6H8.26471M8.88235 6C9.04616 6 9.20326 6.06914 9.31909 6.19221C9.43493 6.31528 9.5 6.4822 9.5 6.65625V7.09375C9.5 7.2678 9.43493 7.43472 9.31909 7.55779C9.20326 7.68086 9.04616 7.75 8.88235 7.75H7.85294M3.25053 10.75H1V1.25H3.25053M8.60738 10.75H11V4.625" stroke="black" stroke-linecap="round" stroke-linejoin="round"/>
<circle cx="9.5" cy="2.5" r="2" fill="#FF4B4B"/>
</svg>
