<svg width="12" height="12" viewBox="0 0 12 12" fill="none" xmlns="http://www.w3.org/2000/svg">
<path d="M4.5 4.10231C4.5 3.80996 4.6382 3.52958 4.88419 3.32286C5.13018 3.11614 5.46382 3 5.81171 3H6.18649C6.53437 3 6.86801 3.11614 7.114 3.32286C7.36 3.52958 7.4982 3.80996 7.4982 4.10231C7.512 4.34087 7.44636 4.57737 7.31117 4.77618C7.17598 4.97499 6.97856 5.12535 6.74865 5.20462C6.51873 5.31031 6.32131 5.51079 6.18612 5.77587C6.05094 6.04096 5.9853 6.35629 5.9991 6.67437M6.24905 8.75578H5.99995M6.24905 8.75578C6.24905 8.68833 6.22117 8.62728 6.17609 8.58308M6.24905 8.75578C6.24905 8.82322 6.22117 8.88427 6.17609 8.92847M5.75085 8.75578H5.99995M5.75085 8.75578C5.75085 8.68376 5.78265 8.61902 5.83323 8.57432M5.75085 8.75578C5.75085 8.82322 5.77873 8.88427 5.82381 8.92847M5.99995 8.75578L5.83323 8.57432M5.99995 8.75578L6.17609 8.58308M5.99995 8.75578L6.17609 8.92847M5.99995 8.75578L5.82381 8.92847M5.83323 8.57432C5.87737 8.5353 5.93583 8.51155 5.99995 8.51155C6.06874 8.51155 6.13102 8.53888 6.17609 8.58308M6.17609 8.92847C6.13102 8.97266 6.06874 9 5.99995 9C5.93116 9 5.86889 8.97266 5.82381 8.92847" stroke="black" stroke-linecap="round" stroke-linejoin="round"/>
<circle cx="9.5" cy="2.5" r="2" fill="#FF4B4B"/>
</svg>
