<svg width="12" height="12" viewBox="0 0 12 12" fill="none" xmlns="http://www.w3.org/2000/svg">
<path d="M10.37 4.98438V7.2509C10.37 7.58266 10.2359 7.90083 9.99723 8.13542C9.75854 8.37001 9.43482 8.50181 9.09727 8.50181C8.75972 8.50181 8.436 8.37001 8.19732 8.13542C7.95864 7.90083 7.82455 7.58266 7.82455 7.2509V4.74908C7.82455 4.68618 7.82936 4.62378 7.8388 4.56234M1.5 8.25178H1.25M1.5 8.25178C1.5 8.18274 1.47202 8.12024 1.42678 8.075M1.5 8.25178C1.5 8.32082 1.47202 8.38331 1.42678 8.42856M1 8.25178H1.25M1 8.25178C1 8.17806 1.03191 8.11179 1.08267 8.06603M1 8.25178C1 8.32082 1.02798 8.38331 1.07322 8.42856M1.25 8.25178L1.08267 8.06603M1.25 8.25178L1.42678 8.075M1.25 8.25178L1.42678 8.42856M1.25 8.25178L1.07322 8.42856M1.08267 8.06603C1.12698 8.02609 1.18565 8.00178 1.25 8.00178C1.31904 8.00178 1.38154 8.02976 1.42678 8.075M1.42678 8.42856C1.38154 8.4738 1.31904 8.50178 1.25 8.50178C1.18096 8.50178 1.11846 8.4738 1.07322 8.42856M4.64273 3.49817C4.98028 3.49817 5.304 3.62996 5.54268 3.86455C5.78136 4.09914 5.91545 4.41732 5.91545 4.74908V7.2509C5.91545 7.58266 5.78136 7.90083 5.54268 8.13542C5.304 8.37001 4.98028 8.50181 4.64273 8.50181C4.30518 8.50181 3.98146 8.37001 3.74277 8.13542C3.50409 7.90083 3.37 7.58266 3.37 7.2509V4.74908C3.37 4.41732 3.50409 4.09914 3.74277 3.86455C3.98146 3.62996 4.30518 3.49817 4.64273 3.49817Z" stroke="black" stroke-linecap="round" stroke-linejoin="round"/>
<circle cx="9.5" cy="2.5" r="2" fill="#FF4B4B"/>
</svg>
