<svg width="12" height="12" viewBox="0 0 12 12" fill="none" xmlns="http://www.w3.org/2000/svg">
<path d="M6.5 1.50001H9.5C10.0523 1.50001 10.5 1.94772 10.5 2.50001L10.5 9.5C10.5 10.0523 10.0523 10.5 9.5 10.5L2.5 10.5C1.94772 10.5 1.5 10.0523 1.5 9.5V6.5M3.46296 1L2.88081 2.88081L1 3.46296L2.88081 4.04512L3.46296 5.92593L4.04512 4.04512L5.92593 3.46296L4.04512 2.88081L3.46296 1ZM7 5.25L6.5247 6.45988L5.31482 6.93518L6.5247 7.41049L7 8.62037L7.47531 7.41049L8.68519 6.93518L7.47531 6.45988L7 5.25Z" stroke="black" stroke-miterlimit="16" stroke-linecap="round" stroke-linejoin="round"/>
</svg>
