<svg width="12" height="12" viewBox="0 0 12 12" fill="none" xmlns="http://www.w3.org/2000/svg">
<path d="M11 9.47302C10.9002 9.20036 10.8495 8.91717 10.8495 8.63245V8.36508M10.8495 7.31769V6.71758C10.8495 4.52062 7.75 4.47927 7.52238 5.98549M10.8495 7.31769V8.36508M10.8495 7.31769C5.64981 6.37033 7.06977 10.9878 10.4425 8.99573C10.8331 8.76503 10.8495 8.51985 10.8495 8.36508M1.64196 7.40579L2.99688 2.73277C3.08511 2.42847 3.90849 2.41648 4.00315 2.73255L5.40277 7.40579M1.64196 7.40579H5.40277M1.64196 7.40579L1 9.48672M5.40277 7.40579L6.06567 9.48672" stroke="black" stroke-linecap="round"/>
</svg>
