<svg width="12" height="12" viewBox="0 0 12 12" fill="none" xmlns="http://www.w3.org/2000/svg">
<path d="M6.05455 5.25H6.55455C6.55455 4.97386 6.33069 4.75 6.05455 4.75V5.25ZM4.77273 4.75C4.49658 4.75 4.27273 4.97386 4.27273 5.25C4.27273 5.52614 4.49658 5.75 4.77273 5.75V4.75ZM4.6875 8.5C4.41136 8.5 4.1875 8.72386 4.1875 9C4.1875 9.27614 4.41136 9.5 4.6875 9.5V8.5ZM7.3125 9.5C7.58864 9.5 7.8125 9.27614 7.8125 9C7.8125 8.72386 7.58864 8.5 7.3125 8.5V9.5ZM6.26516 3.64016L6.61872 3.99372L6.26516 3.64016ZM5.73483 3.64016L5.38128 3.99372L5.73483 3.64016ZM6.05455 5.25V4.75H4.77273V5.25V5.75H6.05455V5.25ZM4.6875 9V9.5H6.05455V9V8.5H4.6875V9ZM6.05455 9V9.5H7.3125V9V8.5H6.05455V9ZM6.05455 9H6.55455V5.25H6.05455H5.55455V9H6.05455ZM5.625 3.375V3.875H6V3.375V2.875H5.625V3.375ZM6 3.375V3.875H6.375V3.375V2.875H6V3.375ZM5.625 3.375H6.125C6.125 3.4119 6.10838 3.44559 6.08378 3.46777L5.74901 3.09638L5.41424 2.72499C5.23735 2.88443 5.125 3.11694 5.125 3.375H5.625ZM5.74901 3.09638L6.08378 3.46777C6.06197 3.48742 6.03187 3.5 6 3.5V3V2.5C5.77509 2.5 5.56897 2.58551 5.41424 2.72499L5.74901 3.09638ZM6 3.375L6.3715 3.04035L6.12051 2.76173L5.74901 3.09638L5.37751 3.43103L5.6285 3.70965L6 3.375ZM6 3V3.5C5.96562 3.5 5.93368 3.48546 5.91161 3.46339L6.26516 3.10984L6.61872 2.75628C6.46092 2.59849 6.24149 2.5 6 2.5V3ZM6.26516 3.10984L5.91161 3.46339C5.88954 3.44132 5.875 3.40938 5.875 3.375H6.375H6.875C6.875 3.13351 6.77651 2.91408 6.61872 2.75628L6.26516 3.10984ZM6 3.375L6.35355 3.72855L6.61872 3.46339L6.26516 3.10984L5.91161 2.75628L5.64645 3.02145L6 3.375ZM6.375 3.375H5.875C5.875 3.34062 5.88954 3.30868 5.91161 3.28661L6.26516 3.64016L6.61872 3.99372C6.77651 3.83592 6.875 3.61649 6.875 3.375H6.375ZM6.26516 3.64016L5.91161 3.28661C5.93368 3.26454 5.96562 3.25 6 3.25V3.75V4.25C6.24149 4.25 6.46092 4.15151 6.61872 3.99372L6.26516 3.64016ZM6 3.375L5.64645 3.72855L5.91161 3.99372L6.26516 3.64016L6.61872 3.28661L6.35355 3.02145L6 3.375ZM6 3.75V3.25C6.03438 3.25 6.06631 3.26454 6.08839 3.28661L5.73483 3.64016L5.38128 3.99372C5.53908 4.15151 5.75851 4.25 6 4.25V3.75ZM5.73483 3.64016L6.08839 3.28661C6.11046 3.30869 6.125 3.34062 6.125 3.375H5.625H5.125C5.125 3.61648 5.22348 3.83592 5.38128 3.99372L5.73483 3.64016ZM6 3.375L5.64645 3.02145L5.38128 3.28661L5.73483 3.64016L6.08839 3.99372L6.35355 3.72855L6 3.375ZM11 6H10.5C10.5 8.48528 8.48528 10.5 6 10.5V11V11.5C9.03757 11.5 11.5 9.03757 11.5 6H11ZM6 11V10.5C3.51472 10.5 1.5 8.48528 1.5 6H1H0.5C0.5 9.03757 2.96243 11.5 6 11.5V11ZM1 6H1.5C1.5 3.51472 3.51472 1.5 6 1.5V1V0.5C2.96243 0.5 0.5 2.96243 0.5 6H1ZM6 1V1.5C8.48528 1.5 10.5 3.51472 10.5 6H11H11.5C11.5 2.96243 9.03757 0.5 6 0.5V1Z" fill="black"/>
</svg>
