<svg width="12" height="12" viewBox="0 0 12 12" fill="none" xmlns="http://www.w3.org/2000/svg">
<path d="M4.35355 3.77682C4.15829 3.58156 3.84171 3.58156 3.64645 3.77682C3.45118 3.97208 3.45118 4.28866 3.64645 4.48392L4.35355 3.77682ZM7.64645 8.48392C7.84171 8.67919 8.15829 8.67919 8.35355 8.48392C8.54882 8.28866 8.54882 7.97208 8.35355 7.77682L7.64645 8.48392ZM8.35355 4.48392C8.54882 4.28866 8.54882 3.97208 8.35355 3.77682C8.15829 3.58156 7.84171 3.58156 7.64645 3.77682L8.35355 4.48392ZM3.64645 7.77682C3.45118 7.97208 3.45118 8.28866 3.64645 8.48392C3.84171 8.67919 4.15829 8.67919 4.35355 8.48392L3.64645 7.77682ZM4 4.13037L3.64645 4.48392L5.64645 6.48392L6 6.13037L6.35355 5.77682L4.35355 3.77682L4 4.13037ZM6 6.13037L5.64645 6.48392L7.64645 8.48392L8 8.13037L8.35355 7.77682L6.35355 5.77682L6 6.13037ZM8 4.13037L7.64645 3.77682L5.64645 5.77682L6 6.13037L6.35355 6.48392L8.35355 4.48392L8 4.13037ZM6 6.13037L5.64645 5.77682L3.64645 7.77682L4 8.13037L4.35355 8.48392L6.35355 6.48392L6 6.13037ZM11 6H10.5C10.5 8.48528 8.48528 10.5 6 10.5V11V11.5C9.03757 11.5 11.5 9.03757 11.5 6H11ZM6 11V10.5C3.51472 10.5 1.5 8.48528 1.5 6H1H0.5C0.5 9.03757 2.96243 11.5 6 11.5V11ZM1 6H1.5C1.5 3.51472 3.51472 1.5 6 1.5V1V0.5C2.96243 0.5 0.5 2.96243 0.5 6H1ZM6 1V1.5C8.48528 1.5 10.5 3.51472 10.5 6H11H11.5C11.5 2.96243 9.03757 0.5 6 0.5V1Z" fill="black"/>
</svg>
