<svg width="12" height="12" viewBox="0 0 12 12" fill="none" xmlns="http://www.w3.org/2000/svg">
<path d="M5 6H7M6 5V7M5.15087 0.56522C5.42791 0.522252 5.71153 0.5 6 0.5C6.28847 0.5 6.57209 0.522252 6.84913 0.56522M9.19762 1.52457C9.42916 1.69027 9.64727 1.87347 9.85002 2.07223C10.0581 2.27617 10.25 2.49653 10.4237 2.73125M1.57634 2.73125C1.75003 2.49653 1.94194 2.27617 2.14998 2.07223C2.35273 1.87347 2.57084 1.69027 2.80238 1.52457M0.568636 6.87088C0.523433 6.58693 0.5 6.29603 0.5 6C0.5 5.70397 0.523433 5.41307 0.568637 5.12912M11.4314 5.12912C11.4766 5.41307 11.5 5.70397 11.5 6C11.5 6.29603 11.4766 6.58693 11.4314 6.87088M2.80238 10.4754C2.57084 10.3097 2.35273 10.1265 2.14998 9.92777C1.94194 9.72383 1.75003 9.50347 1.57634 9.26875M10.4237 9.26875C10.25 9.50347 10.0581 9.72383 9.85002 9.92777C9.64727 10.1265 9.42916 10.3097 9.19762 10.4754M6.84913 11.4348C6.57209 11.4777 6.28847 11.5 6 11.5C5.71153 11.5 5.42791 11.4777 5.15087 11.4348M8 3.5H4C3.7703 3.5 3.5 3.7703 3.5 4V8C3.5 8.2297 3.7703 8.5 4 8.5H8C8.2297 8.5 8.5 8.2297 8.5 8V4C8.5 3.7703 8.2297 3.5 8 3.5Z" stroke="black" stroke-linecap="round" stroke-linejoin="round"/>
</svg>
