<svg width="12" height="12" viewBox="0 0 12 12" fill="none" xmlns="http://www.w3.org/2000/svg">
<path d="M2.5 10C2.5 10.2761 2.72386 10.5 3 10.5C3.27614 10.5 3.5 10.2761 3.5 10H2.5ZM7.33502 10.3536C7.53028 10.5488 7.84686 10.5488 8.04212 10.3536C8.23739 10.1583 8.23739 9.84171 8.04212 9.64645L7.33502 10.3536ZM8.5 10C8.5 10.2761 8.72386 10.5 9 10.5C9.27614 10.5 9.5 10.2761 9.5 10H8.5ZM8.35484 4.81143H3.64516V5.81143H8.35484V4.81143ZM3.64516 4.81143C3.01418 4.81143 2.5 5.32561 2.5 5.95659H3.5C3.5 5.8779 3.56646 5.81143 3.64516 5.81143V4.81143ZM9.5 5.95659C9.5 5.32561 8.98582 4.81143 8.35484 4.81143V5.81143C8.43354 5.81143 8.5 5.8779 8.5 5.95659H9.5ZM2.5 5.95659V10H3.5V5.95659H2.5ZM2.83999 5.85853L7.33502 10.3536L8.04212 9.64645L3.5471 5.15143L2.83999 5.85853ZM9.5 10V5.95659H8.5V10H9.5Z" fill="black"/>
<circle cx="9.5" cy="3" r="1.5" fill="#FF4B4B"/>
<circle cx="2.5" cy="3" r="1.5" fill="#FF4B4B"/>
</svg>
