<svg width="12" height="12" viewBox="0 0 12 12" fill="none" xmlns="http://www.w3.org/2000/svg">
<path d="M4.5 10C4.5 10.2761 4.72386 10.5 5 10.5C5.27614 10.5 5.5 10.2761 5.5 10H4.5ZM9.64645 10.3536C9.84171 10.5488 10.1583 10.5488 10.3536 10.3536C10.5488 10.1583 10.5488 9.84171 10.3536 9.64645L9.64645 10.3536ZM10 5.5C10.2761 5.5 10.5 5.27614 10.5 5C10.5 4.72386 10.2761 4.5 10 4.5V5.5ZM5.82713 4.5C5.09607 4.5 4.5 5.09607 4.5 5.82713H5.5C5.5 5.64835 5.64835 5.5 5.82713 5.5V4.5ZM4.5 5.82713V10H5.5V5.82713H4.5ZM4.89459 5.60169L9.64645 10.3536L10.3536 9.64645L5.60169 4.89459L4.89459 5.60169ZM10 4.5H5.82713V5.5H10V4.5Z" fill="black"/>
<circle cx="3" cy="3" r="2" fill="#FF4B4B"/>
</svg>
