<svg width="12" height="12" viewBox="0 0 12 12" fill="none" xmlns="http://www.w3.org/2000/svg">
<path d="M3 8.25057H1.72647C1.46332 8.25057 1.25 8.03725 1.25 7.7741V1.83C1.25 1.56686 1.46332 1.33 1.72647 1.33H4.97889L5.80753 2.58H9.5C9.77614 2.58 10 2.80386 10 3.08V3.58M9.25 9.82985V9.08H10.75V10.58H9.25767L9.25 9.82985ZM9.25 9.82985H8.75C8.19772 9.82985 7.75 9.38213 7.75 8.82985V7.83M9.25 5.82985V5.08H10.75V6.58H9.25767L9.25 5.82985ZM9.25 5.82985H8.75C8.19772 5.82985 7.75 6.27756 7.75 6.82985V7.83M6.25 7.83V7.08H4.75V7.82985L4.75767 8.58H6.25V7.83ZM6.25 7.83H7.75" stroke="black" stroke-miterlimit="10" stroke-linecap="round" stroke-linejoin="round"/>
</svg>
