<svg width="12" height="12" viewBox="0 0 12 12" fill="none" xmlns="http://www.w3.org/2000/svg">
<path d="M4.36364 5H6.07273V10M4.25 10H6.07273M7.75 10H6.07273M6.5 2.5H6M6.5 2.5C6.5 2.36193 6.44404 2.23693 6.35355 2.14645M6.5 2.5C6.5 2.63807 6.44404 2.76307 6.35355 2.85355M5.5 2.5H6M5.5 2.5C5.5 2.35255 5.56382 2.22002 5.66535 2.1285M5.5 2.5C5.5 2.63807 5.55596 2.76307 5.64645 2.85355M6 2.5L5.66535 2.1285M6 2.5L6.35355 2.14645M6 2.5L6.35355 2.85355M6 2.5L5.64645 2.85355M5.66535 2.1285C5.75396 2.04862 5.8713 2 6 2C6.13807 2 6.26307 2.05596 6.35355 2.14645M6.35355 2.85355C6.26307 2.94404 6.13807 3 6 3C5.86193 3 5.73693 2.94404 5.64645 2.85355" stroke="black" stroke-linecap="round" stroke-linejoin="round"/>
</svg>
