<svg width="12" height="12" viewBox="0 0 12 12" fill="none" xmlns="http://www.w3.org/2000/svg">
<path d="M6.07273 5H6.57273C6.57273 4.72386 6.34887 4.5 6.07273 4.5V5ZM4.36364 4.5C4.08749 4.5 3.86364 4.72386 3.86364 5C3.86364 5.27614 4.08749 5.5 4.36364 5.5V4.5ZM4.25 9.5C3.97386 9.5 3.75 9.72386 3.75 10C3.75 10.2761 3.97386 10.5 4.25 10.5V9.5ZM7.75 10.5C8.02614 10.5 8.25 10.2761 8.25 10C8.25 9.72386 8.02614 9.5 7.75 9.5V10.5ZM6.35355 2.85355L6.70711 3.20711L6.35355 2.85355ZM5.64645 2.85355L5.29289 3.20711L5.64645 2.85355ZM6.07273 4.5H4.36364V5.5H6.07273V4.5ZM4.25 10.5H6.07273V9.5H4.25V10.5ZM6.07273 10.5H7.75V9.5H6.07273V10.5ZM6.57273 10V5H5.57273V10H6.57273ZM5.5 3H6V2H5.5V3ZM6 3H6.5V2H6V3ZM6 2.5L6.00012 2.49989L5.33058 1.75711C5.12831 1.93944 5 2.20507 5 2.5H6ZM6.00012 2.49989L6 2.5V1.5C5.74291 1.5 5.50746 1.59767 5.33058 1.75711L6.00012 2.49989ZM6.3715 2.16535L6.03684 1.79385L5.29385 2.46315L5.6285 2.83465L6.3715 2.16535ZM6 2.5V2.5L6.70711 1.79289C6.52669 1.61248 6.27601 1.5 6 1.5V2.5ZM6 2.5V2.5H7C7 2.224 6.88752 1.97331 6.70711 1.79289L6 2.5ZM6.35355 2.85355L6.70711 2.5L6 1.79289L5.64645 2.14645L6.35355 2.85355ZM6 2.5V2.5L6.70711 3.20711C6.88752 3.02669 7 2.776 7 2.5H6ZM6 2.5V2.5V3.5C6.27601 3.5 6.52669 3.38752 6.70711 3.20711L6 2.5ZM5.64645 2.85355L6 3.20711L6.70711 2.5L6.35355 2.14645L5.64645 2.85355ZM6 2.5L6 2.5L5.29289 3.20711C5.47331 3.38752 5.724 3.5 6 3.5V2.5ZM6 2.5L6 2.5H5C5 2.776 5.11247 3.02669 5.29289 3.20711L6 2.5ZM5.64645 2.14645L5.29289 2.5L6 3.20711L6.35355 2.85355L5.64645 2.14645Z" fill="black"/>
</svg>
