<svg width="12" height="12" viewBox="0 0 12 12" fill="none" xmlns="http://www.w3.org/2000/svg">
<path d="M1 7.3159L0.5 7.3159L1 7.3159ZM8.96296 11C9.23911 11 9.46296 10.7761 9.46296 10.5C9.46296 10.2239 9.23911 10 8.96296 10V11ZM3 10C2.72386 10 2.5 10.2239 2.5 10.5C2.5 10.7761 2.72386 11 3 11V10ZM1.55556 7.88075V8.38075H10.4444V7.88075V7.38075H1.55556V7.88075ZM10.4444 7.88075V8.38075C11.0247 8.38075 11.5 7.88544 11.5 7.3159H11H10.5C10.5 7.32219 10.4964 7.34082 10.4769 7.36069C10.4572 7.38065 10.4426 7.38075 10.4444 7.38075V7.88075ZM11 7.3159H11.5V2.06485H11H10.5V7.3159H11ZM11 2.06485H11.5C11.5 1.49531 11.0247 1 10.4444 1V1.5V2C10.4426 2 10.4572 2.0001 10.4769 2.02006C10.4964 2.03993 10.5 2.05857 10.5 2.06485H11ZM10.4444 1.5V1H1.55556V1.5V2H10.4444V1.5ZM1.55556 1.5V1C0.975325 1 0.5 1.49531 0.5 2.06485H1H1.5C1.5 2.05857 1.5036 2.03993 1.52314 2.02006C1.54277 2.0001 1.55736 2 1.55556 2V1.5ZM1 2.06485H0.5V7.3159H1H1.5V2.06485H1ZM1 7.3159L0.5 7.3159C0.5 7.8631 0.91682 8.38075 1.55556 8.38075V7.88075V7.38075C1.53908 7.38075 1.53068 7.37771 1.52738 7.37628C1.52374 7.37469 1.52055 7.37253 1.5173 7.36907C1.51033 7.36164 1.5 7.34415 1.5 7.3159L1 7.3159ZM8.96296 10.5V10H3V10.5V11H8.96296V10.5ZM4.77778 10.5H5.27778V7.88075H4.77778H4.27778V10.5H4.77778ZM7.44444 7.88075H6.94444V10.5H7.44444H7.94444V7.88075H7.44444Z" fill="black"/>
</svg>
