<svg width="12" height="12" viewBox="0 0 12 12" fill="none" xmlns="http://www.w3.org/2000/svg">
<path d="M7.08477 10.5848C6.98281 10.6867 6.84219 10.75 6.6875 10.75H1.8125C1.50312 10.75 1.25 10.4969 1.25 10.1875V5.3125C1.25 5.15781 1.31328 5.01719 1.41523 4.91523M7.08477 10.5848C7.18672 10.4828 7.25 10.3422 7.25 10.1875V5.3125C7.25 5.00313 6.99688 4.75 6.6875 4.75H1.8125C1.65781 4.75 1.51719 4.81328 1.41523 4.91523M7.08477 10.5848L1.41523 4.91523M8.4375 9C8.59219 9 8.73281 8.93672 8.83477 8.83477C8.93672 8.73281 9 8.59219 9 8.4375V3.5625C9 3.25313 8.74687 3 8.4375 3H3.5625C3.40781 3 3.26719 3.06328 3.16523 3.16523C3.06328 3.26719 3 3.40781 3 3.5625M10.1875 7.25C10.3422 7.25 10.4828 7.18672 10.5848 7.08477C10.6867 6.98281 10.75 6.84219 10.75 6.6875V1.8125C10.75 1.50312 10.4969 1.25 10.1875 1.25H5.3125C5.15781 1.25 5.01719 1.31328 4.91523 1.41523C4.81328 1.51719 4.75 1.65781 4.75 1.8125" stroke="black" stroke-miterlimit="10" stroke-linecap="round" stroke-linejoin="round"/>
</svg>
