<svg width="12" height="12" viewBox="0 0 12 12" fill="none" xmlns="http://www.w3.org/2000/svg">
<path d="M8.19389 5C8.47004 5 8.69389 4.77614 8.69389 4.5C8.69389 4.22386 8.47004 4 8.19389 4V5ZM5.5 4C5.22386 4 5 4.22386 5 4.5C5 4.77614 5.22386 5 5.5 5V4ZM10.5 3C10.7762 3 11 2.77614 11 2.5C11 2.22386 10.7762 2 10.5 2V3ZM5.5 2C5.22386 2 5 2.22386 5 2.5C5 2.77614 5.22386 3 5.5 3V2ZM8.50005 10.5C8.7762 10.5 9.00005 10.2761 9.00005 10C9.00005 9.72386 8.7762 9.5 8.50005 9.5V10.5ZM5.5 9.5C5.22386 9.5 5 9.72386 5 10C5 10.2761 5.22386 10.5 5.5 10.5V9.5ZM10.5 8.5C10.7762 8.5 11 8.27614 11 8C11 7.72386 10.7762 7.5 10.5 7.5V8.5ZM5.5 7.5C5.22386 7.5 5 7.72386 5 8C5 8.27614 5.22386 8.5 5.5 8.5V7.5ZM1.22265 2.08397C0.992886 2.23715 0.930799 2.54759 1.08397 2.77735C1.23715 3.00711 1.54759 3.0692 1.77735 2.91603L1.22265 2.08397ZM3 1.5H3.5C3.5 1.3156 3.39851 1.14617 3.23593 1.05916C3.07335 0.972153 2.87608 0.981689 2.72265 1.08397L3 1.5ZM2.5 5C2.5 5.27614 2.72386 5.5 3 5.5C3.27614 5.5 3.5 5.27614 3.5 5H2.5ZM1.5 10.5L1.02566 10.3419C0.974833 10.4944 1.0004 10.662 1.09438 10.7924C1.18835 10.9227 1.33928 11 1.5 11V10.5ZM3.50003 11C3.77617 11 4.00003 10.7761 4.00003 10.5C4.00003 10.2239 3.77617 10 3.50003 10V11ZM1.00003 8.00001C1.00003 8.27616 1.22389 8.50001 1.50003 8.50001C1.77617 8.50001 2.00003 8.27616 2.00003 8.00001H1.00003ZM8.19389 4H5.5V5H8.19389V4ZM10.5 2H5.5V3H10.5V2ZM8.50005 9.5H5.5V10.5H8.50005V9.5ZM10.5 7.5H5.5V8.5H10.5V7.5ZM1.77735 2.91603L3.27735 1.91603L2.72265 1.08397L1.22265 2.08397L1.77735 2.91603ZM2.5 1.5V5H3.5V1.5H2.5ZM1.5 11H3.50003V10H1.5V11ZM4 8C4 7.69766 3.87829 7.33853 3.64699 7.05054C3.40295 6.7467 3.01708 6.5 2.50001 6.5V7.5C2.66867 7.5 2.78279 7.57149 2.86732 7.67673C2.96458 7.79783 3 7.9387 3 8H4ZM2.00003 8.00001C2.00003 7.93871 2.03545 7.79784 2.13271 7.67674C2.21724 7.57149 2.33136 7.5 2.50001 7.5V6.5C1.98295 6.5 1.59707 6.7467 1.35304 7.05055C1.12174 7.33855 1.00003 7.69768 1.00003 8.00001H2.00003ZM3 8C3 8.08258 2.97574 8.14838 2.88945 8.24239C2.78319 8.35816 2.63147 8.46597 2.39307 8.63966C1.94405 8.9668 1.32865 9.43293 1.02566 10.3419L1.97434 10.6581C2.17135 10.0671 2.55595 9.75825 2.98193 9.44789C3.18103 9.30283 3.43556 9.12626 3.62617 8.91859C3.83676 8.68915 4 8.39244 4 8H3Z" fill="black"/>
</svg>
