<svg width="12" height="12" viewBox="0 0 12 12" fill="none" xmlns="http://www.w3.org/2000/svg">
<path d="M4.79932 4.4C4.79932 4.16131 4.90994 3.93239 5.10685 3.7636C5.30377 3.59482 5.57084 3.5 5.84932 3.5H6.14932C6.42779 3.5 6.69487 3.59482 6.89178 3.7636C7.08869 3.93239 7.19932 4.16131 7.19932 4.4C7.21036 4.59478 7.15782 4.78787 7.04961 4.95019C6.94139 5.11252 6.78336 5.23528 6.59932 5.3C6.41527 5.38629 6.25724 5.54998 6.14903 5.76641C6.04081 5.98284 5.98827 6.2403 5.99932 6.5M6.1994 8.1994H6M6.1994 8.1994C6.1994 8.14434 6.17708 8.09449 6.141 8.0584M6.1994 8.1994C6.1994 8.25447 6.17708 8.30432 6.141 8.3404M5.8006 8.1994H6M5.8006 8.1994C5.8006 8.1406 5.82605 8.08774 5.86654 8.05125M5.8006 8.1994C5.8006 8.25447 5.82292 8.30432 5.859 8.3404M6 8.1994L5.86654 8.05125M6 8.1994L6.141 8.0584M6 8.1994L6.141 8.3404M6 8.1994L5.859 8.3404M5.86654 8.05125C5.90188 8.01939 5.94868 8 6 8C6.05506 8 6.10491 8.02232 6.141 8.0584M6.141 8.3404C6.10491 8.37649 6.05506 8.3988 6 8.3988C5.94494 8.3988 5.89509 8.37649 5.859 8.3404M10.5 6C10.5 8.48528 8.48528 10.5 6 10.5C3.51472 10.5 1.5 8.48528 1.5 6C1.5 3.51472 3.51472 1.5 6 1.5C8.48528 1.5 10.5 3.51472 10.5 6Z" stroke="black" stroke-linecap="round" stroke-linejoin="round"/>
</svg>
