<svg width="12" height="12" viewBox="0 0 12 12" fill="none" xmlns="http://www.w3.org/2000/svg">
<path d="M4.29932 4.4C4.29932 4.67614 4.52317 4.9 4.79932 4.9C5.07546 4.9 5.29932 4.67614 5.29932 4.4H4.29932ZM5.84932 3.5V3V3.5ZM7.19932 4.4H6.69932V4.41417L6.70012 4.42831L7.19932 4.4ZM6.59932 5.3L6.43345 4.82831L6.40978 4.83664L6.38706 4.84729L6.59932 5.3ZM5.49977 6.52125C5.5115 6.79714 5.74467 7.01128 6.02057 6.99955C6.29646 6.98781 6.5106 6.75464 6.49886 6.47875L5.49977 6.52125ZM6.141 8.0584L6.49455 7.70485V7.70485L6.141 8.0584ZM5.29932 4.4C5.29932 4.32097 5.33531 4.22632 5.43225 4.14323L4.78146 3.38398C4.48457 3.63845 4.29932 4.00164 4.29932 4.4H5.29932ZM5.43225 4.14323C5.53157 4.0581 5.68068 4 5.84932 4V3C5.461 3 5.07597 3.13154 4.78146 3.38398L5.43225 4.14323ZM5.84932 4H6.14932V3H5.84932V4ZM6.14932 4C6.31796 4 6.46706 4.0581 6.56638 4.14323L7.21717 3.38398C6.92267 3.13154 6.53763 3 6.14932 3V4ZM6.56638 4.14323C6.66332 4.22632 6.69932 4.32097 6.69932 4.4H7.69932C7.69932 4.00164 7.51406 3.63845 7.21717 3.38398L6.56638 4.14323ZM6.70012 4.42831C6.70503 4.51488 6.68168 4.6007 6.63358 4.67284L7.46563 5.22754C7.63397 4.97504 7.7157 4.67467 7.69851 4.37169L6.70012 4.42831ZM6.63358 4.67284C6.58548 4.74499 6.51525 4.79955 6.43345 4.82831L6.76518 5.77169C7.05147 5.67102 7.29729 5.48005 7.46563 5.22754L6.63358 4.67284ZM6.38706 4.84729C6.0827 4.98999 5.8504 5.24563 5.70181 5.5428L6.59624 5.99002C6.66409 5.85432 6.74785 5.78259 6.81157 5.75271L6.38706 4.84729ZM5.70181 5.5428C5.55287 5.84069 5.48539 6.18329 5.49977 6.52125L6.49886 6.47875C6.49115 6.29731 6.52875 6.12499 6.59624 5.99002L5.70181 5.5428ZM5.8006 8.6994H6V7.6994H5.8006V8.6994ZM6 8.6994H6.1994V7.6994H6V8.6994ZM6.3006 8.1994C6.3006 8.28808 6.26156 8.36832 6.20131 8.42264L5.53177 7.67986C5.39054 7.80716 5.3006 7.99312 5.3006 8.1994H6.3006ZM6.20131 8.42264C6.14838 8.47034 6.07707 8.5 6 8.5V7.5C5.82028 7.5 5.65538 7.56844 5.53177 7.67986L6.20131 8.42264ZM6.3715 7.86475L6.23804 7.7166L5.49504 8.3859L5.6285 8.53405L6.3715 7.86475ZM6 8.5C5.91713 8.5 5.8413 8.46581 5.78745 8.41196L6.49455 7.70485C6.36853 7.57883 6.193 7.5 6 7.5V8.5ZM5.78745 8.41196C5.73359 8.3581 5.6994 8.28227 5.6994 8.1994H6.6994C6.6994 8.00641 6.62058 7.83087 6.49455 7.70485L5.78745 8.41196ZM6.35355 8.55296L6.49455 8.41196L5.78745 7.70485L5.64645 7.84585L6.35355 8.55296ZM5.6994 8.1994C5.6994 8.11653 5.73359 8.0407 5.78745 7.98685L6.49455 8.69395C6.62057 8.56793 6.6994 8.3924 6.6994 8.1994H5.6994ZM5.78745 7.98685C5.8413 7.933 5.91713 7.8988 6 7.8988V8.8988C6.193 8.8988 6.36853 8.81997 6.49455 8.69395L5.78745 7.98685ZM5.64645 8.55296L5.78745 8.69396L6.49455 7.98685L6.35355 7.84585L5.64645 8.55296ZM6 7.8988C6.08287 7.8988 6.1587 7.933 6.21255 7.98685L5.50545 8.69395C5.63147 8.81997 5.807 8.8988 6 8.8988V7.8988ZM6.21255 7.98685C6.26641 8.0407 6.3006 8.11653 6.3006 8.1994H5.3006C5.3006 8.3924 5.37943 8.56793 5.50545 8.69395L6.21255 7.98685ZM5.64645 7.84585L5.50545 7.98685L6.21255 8.69396L6.35355 8.55296L5.64645 7.84585ZM10 6C10 8.20914 8.20914 10 6 10V11C8.76142 11 11 8.76142 11 6H10ZM6 10C3.79086 10 2 8.20914 2 6H1C1 8.76142 3.23858 11 6 11V10ZM2 6C2 3.79086 3.79086 2 6 2V1C3.23858 1 1 3.23858 1 6H2ZM6 2C8.20914 2 10 3.79086 10 6H11C11 3.23858 8.76142 1 6 1V2Z" fill="black"/>
</svg>
