<svg width="12" height="12" viewBox="0 0 12 12" fill="none" xmlns="http://www.w3.org/2000/svg">
<path d="M3 7.42593H10.5M10.5 9.5H3M7.5 5.35185H10.5M10.5 3.27778H7.5M4.5 4.31481H5C5.09889 4.31481 5.19556 4.34523 5.27779 4.4022C5.36001 4.45918 5.4241 4.54016 5.46194 4.6349C5.49978 4.72965 5.50969 4.83391 5.49039 4.93449C5.4711 5.03507 5.42348 5.12747 5.35355 5.19998C5.28363 5.2725 5.19454 5.32188 5.09755 5.34189C5.00055 5.3619 4.90002 5.35163 4.80866 5.31238C4.7173 5.27314 4.63921 5.20668 4.58427 5.12141C4.52932 5.03614 4.5 4.93589 4.5 4.83333V3.53704C4.5 3.262 4.60536 2.99822 4.79289 2.80374C4.98043 2.60926 5.23478 2.5 5.5 2.5M1.5 4.31481H2C2.09889 4.31481 2.19556 4.34523 2.27779 4.4022C2.36001 4.45918 2.4241 4.54016 2.46194 4.6349C2.49978 4.72965 2.50969 4.83391 2.49039 4.93449C2.4711 5.03507 2.42348 5.12747 2.35355 5.19998C2.28363 5.2725 2.19454 5.32188 2.09755 5.34189C2.00055 5.3619 1.90002 5.35163 1.80866 5.31238C1.7173 5.27314 1.63921 5.20668 1.58427 5.12141C1.52932 5.03614 1.5 4.93589 1.5 4.83333V3.53704C1.5 3.262 1.60536 2.99822 1.79289 2.80374C1.98043 2.60926 2.23478 2.5 2.5 2.5" stroke="black" stroke-linecap="round" stroke-linejoin="round"/>
</svg>
