<svg width="12" height="12" viewBox="0 0 12 12" fill="none" xmlns="http://www.w3.org/2000/svg">
<path d="M5.93593 9.42519C6.66557 9.23889 7.48631 8.74519 8.4078 7.82334C12.0393 4.19187 10.7938 1.20632 10.7938 1.20632C10.7938 1.20632 9.70485 0.75188 8.04262 1.19188C6.95224 1.4804 5.61519 2.15373 4.17665 3.59224C3.25479 4.51409 2.76108 5.33446 2.57479 6.06409M5.93593 9.42519L2.57479 6.06409M5.93593 9.42519L7.23817 10.7274L8.80374 9.16185C9.59708 8.36852 9.82634 7.31112 9.31559 6.80038M2.57479 6.06409L1.2733 4.76261L2.83887 3.19706C3.63221 2.40373 4.68963 2.17447 5.20038 2.68521M2.25 7.75L1.5 8.5M3 9L1 11M4.25 9.75L3 11M8.89264 4.44002C8.89264 5.22917 8.2529 5.8689 7.46374 5.8689C6.67458 5.8689 6.03483 5.22917 6.03483 4.44002C6.03483 3.65086 6.67458 3.01113 7.46374 3.01113C8.2529 3.01113 8.89264 3.65086 8.89264 4.44002Z" stroke="black" stroke-miterlimit="10" stroke-linecap="round" stroke-linejoin="round"/>
</svg>
