<svg width="12" height="12" viewBox="0 0 12 12" fill="none" xmlns="http://www.w3.org/2000/svg">
<path d="M2.08696 4.8938C1.47826 4.8938 1 5.38053 1 6C1 6.61947 1.47826 7.10619 2.08696 7.10619M2.08696 4.8938C2.65217 4.8938 3.17391 5.38053 3.17391 6C3.17391 6.61947 2.69565 7.10619 2.08696 7.10619M2.08696 4.8938V2.99115V1M2.08696 7.10619V11M6 7.15043C5.3913 7.15043 4.91304 7.63716 4.91304 8.25663C4.91304 8.87609 5.3913 9.36282 6 9.36282M6 7.15043C6.6087 7.15043 7.08696 7.63716 7.08696 8.25663C7.08696 8.87609 6.6087 9.36282 6 9.36282M6 7.15043V1M6 9.36282V11M9.91304 4.14158C9.30435 4.14158 8.82609 4.62831 8.82609 5.24778C8.82609 5.86725 9.30435 6.35397 9.91304 6.35397M9.91304 4.14158C10.5217 4.14158 11 4.62831 11 5.24778C11 5.86725 10.5217 6.35397 9.91304 6.35397M9.91304 4.14158V1M9.91304 6.35397V11" stroke="black" stroke-miterlimit="10" stroke-linecap="round" stroke-linejoin="round"/>
</svg>
