<svg width="12" height="12" viewBox="0 0 12 12" fill="none" xmlns="http://www.w3.org/2000/svg">
<path d="M6 7.81481C7.00229 7.81481 7.81481 7.00229 7.81481 6C7.81481 4.9977 7.00229 4.18518 6 4.18518C4.9977 4.18518 4.18518 4.9977 4.18518 6C4.18518 7.00229 4.9977 7.81481 6 7.81481Z" stroke="black" stroke-miterlimit="10" stroke-linejoin="round"/>
<path d="M9.44444 3.81481L10.0741 3L8.96296 1.92593L8.14815 2.55556L6.88889 2.03704L6.77778 1H5.22222L5.07407 2.03704L3.81481 2.55556L3 1.92593L1.92593 3L2.55556 3.81481L2.03704 5.07407L1 5.22222V6.77778L2.03704 6.88889L2.55556 8.14815L1.92593 9L3 10.0741L3.85185 9.44444L5.11111 9.96296L5.22222 11H6.77778L6.92593 9.96296L8.14815 9.44444L9 10.0741L10.0741 8.96296L9.44444 8.14815L9.96296 6.88889L11 6.77778V5.22222L9.96296 5.07407L9.44444 3.81481Z" stroke="black" stroke-miterlimit="10" stroke-linejoin="round"/>
</svg>
