<svg width="12" height="12" viewBox="0 0 12 12" fill="none" xmlns="http://www.w3.org/2000/svg">
<path d="M9.28221 5.67625L6.95859 6.71429M6.95859 6.71429C6.83565 6.30122 6.453 6 6 6C5.44772 6 5 6.44772 5 7C5 7.55228 5.44772 8 6 8C6.55228 8 7 7.55228 7 7C7 6.90072 6.98553 6.80482 6.95859 6.71429ZM1.2289 8.5C1.08018 8.02648 1 7.5226 1 7C1 4.23858 3.23858 2 6 2C8.76142 2 11 4.23858 11 7C11 7.5226 10.9198 8.02648 10.7711 8.5M2.5 7C2.5 5.067 4.067 3.5 6 3.5C6.74362 3.5 7.43308 3.73191 8 4.12734" stroke="black" stroke-linecap="round" stroke-linejoin="round"/>
</svg>
