<svg width="12" height="12" viewBox="0 0 12 12" fill="none" xmlns="http://www.w3.org/2000/svg">
<path d="M1.00003 5.8963H11" stroke="black" stroke-linecap="round" stroke-linejoin="round"/>
<path d="M3.75 7.76798C3.75 8.19765 3.84097 8.57983 4.02291 8.91452C4.20081 9.25373 4.45957 9.51832 4.79919 9.70828C5.13477 9.90276 5.54515 10 6.03032 10C6.5155 10 6.92385 9.91633 7.25539 9.74898C7.58288 9.58616 7.83154 9.3668 8.00135 9.09091C8.16712 8.81954 8.25 8.51651 8.25 8.18182C8.25 7.94664 8.20957 7.72954 8.12871 7.53054C8.06752 7.38339 7.97741 7.24271 7.85836 7.10851" stroke="black" stroke-linecap="round" stroke-linejoin="round"/>
<path d="M8.25 4.10325C8.25 3.69837 8.15903 3.33824 7.97709 3.02286C7.79919 2.70321 7.54043 2.45389 7.20081 2.27489C6.86523 2.09163 6.45485 2 5.96968 2C5.4845 2 5.07615 2.07885 4.74461 2.23654C4.41712 2.38996 4.16846 2.59667 3.99865 2.85664C3.83288 3.11236 3.75 3.3979 3.75 3.71328C3.75 3.9349 3.79043 4.13947 3.87129 4.327C3.95216 4.51026 4.08356 4.68286 4.2655 4.84482C4.35332 4.91928 4.45422 4.99184 4.56818 5.0625C4.77431 5.16667 5.45238 5.45312 5.76562 5.70312" stroke="black" stroke-linecap="round" stroke-linejoin="round"/>
</svg>
