<svg width="12" height="12" viewBox="0 0 12 12" fill="none" xmlns="http://www.w3.org/2000/svg">
<path d="M9 10.25V10.75C9.26703 10.75 9.48693 10.5402 9.49945 10.2734L9 10.25ZM3 10.25L2.50055 10.2734C2.51306 10.5402 2.73297 10.75 3 10.75V10.25ZM2 2.26203C1.72386 2.26203 1.5 2.48588 1.5 2.76203C1.5 3.03817 1.72386 3.26203 2 3.26203V2.26203ZM10 3.26203C10.2761 3.26203 10.5 3.03817 10.5 2.76203C10.5 2.48588 10.2761 2.26203 10 2.26203V3.26203ZM4.66665 1.25V0.75C4.39051 0.75 4.16665 0.973858 4.16665 1.25H4.66665ZM7.33332 1.25H7.83332C7.83332 0.973858 7.60946 0.75 7.33332 0.75V1.25ZM8.85195 2.73859L8.50055 10.2266L9.49945 10.2734L9.85085 2.78546L8.85195 2.73859ZM3.49945 10.2266L3.14815 2.73859L2.14924 2.78546L2.50055 10.2734L3.49945 10.2266ZM2 3.26203H10V2.26203H2V3.26203ZM5.16665 2.76199V1.25H4.16665V2.76199H5.16665ZM4.66665 1.75H7.33332V0.75H4.66665V1.75ZM6.83332 1.25V2.76199H7.83332V1.25H6.83332ZM9 9.75H6V10.75H9V9.75ZM6 9.75H3V10.75H6V9.75Z" fill="black"/>
</svg>
